<svg height="512" viewBox="0 0 64 64" width="512" xmlns="http://www.w3.org/2000/svg"><g id="flat"><path d="m31 28-2 2a2.828 2.828 0 0 1 -4 0 2.828 2.828 0 0 1 0-4l6-6z" fill="#e5a338"/><rect fill="#2d75bb" height="6" rx="3" width="46" x="9" y="42"/><circle cx="34" cy="31" fill="#fcf05a" r="7"/><path d="m31 20v10.853a3.1 3.1 0 0 0 2.441 3.1 3 3 0 0 0 3.559-2.953v-7l6-6a3.209 3.209 0 0 0 0-4l-5-8v-3h-15l-2 4 1 4z" fill="#ffd782"/><path d="m23 19a2.12 2.12 0 0 1 0-3l4-4 2 2v2l-3 3a2.12 2.12 0 0 1 -3 0z" fill="#e5a338"/><path d="m21.008 15a2.12 2.12 0 0 1 0-3l3-3 3 3-3 3a2.12 2.12 0 0 1 -3 0z" fill="#f9bb4b"/><path d="m38.293 13.293-2 2a1 1 0 0 0 -.293.707v15a2 2 0 0 1 -4 0v-13a1 1 0 0 0 -.293-.707l-1.707-1.707v-5.586h-2v6a1 1 0 0 0 .293.707l-2.293 2.293a2.12 2.12 0 0 0 0 3 2.12 2.12 0 0 0 3 0l1-1v10a4 4 0 0 0 8 0v-14.586l1.707-1.707z" fill="#f9bb4b"/><path d="m50 52v-4h-36v4a3 3 0 0 0 -3 3v6h42v-6a3 3 0 0 0 -3-3z" fill="#50b4f8"/><g fill="#f4f4e6"><path d="m14 50h19v2h-19z"/><path d="m44 50h6v2h-6z"/><path d="m40 50h2v2h-2z"/></g></g></svg>