<svg width="1000" height="675" viewBox="0 0 1000 675" fill="none" xmlns="http://www.w3.org/2000/svg">
<rect width="1000" height="674.19" fill="white"/>
<path d="M999.012 0H0V674H999.012V0Z" fill="#280C51"/>
<path d="M997.68 1.332H1.33202V672.668H997.68V1.332Z" stroke="#707070"/>
<path d="M318.259 128.761C318.561 131.828 317.659 134.893 315.744 137.309C313.829 139.724 311.05 141.301 307.994 141.705C305.722 141.908 303.444 141.396 301.477 140.241C299.511 139.085 297.955 137.344 297.026 135.261L291.432 135.754L287.207 137.792C286.733 138.023 286.324 138.367 286.016 138.794C285.708 139.221 285.51 139.718 285.44 140.24C285.046 143.056 284.331 145.818 283.309 148.472C283.138 148.908 283.066 149.377 283.098 149.844C283.13 150.312 283.265 150.767 283.493 151.176L284.998 153.866L289.183 156.674C290.642 156.114 292.238 156.021 293.752 156.408C295.265 156.796 296.621 157.645 297.63 158.837C298.64 160.029 299.253 161.506 299.386 163.063C299.518 164.62 299.163 166.179 298.37 167.525C297.577 168.871 296.384 169.936 294.958 170.574C293.532 171.212 291.942 171.39 290.41 171.084C288.878 170.779 287.479 170.004 286.407 168.867C285.335 167.73 284.644 166.288 284.428 164.741L279.787 161.629L276.857 161.272C276.362 161.214 275.86 161.267 275.388 161.426C274.915 161.585 274.485 161.848 274.126 162.194C271.652 164.552 268.869 166.563 265.854 168.172C265.355 168.441 264.933 168.833 264.628 169.311C264.323 169.789 264.145 170.337 264.112 170.903L263.742 176.817L265.577 184.103C267.56 184.657 269.304 185.849 270.54 187.495C271.776 189.141 272.434 191.149 272.413 193.207C272.391 195.266 271.691 197.259 270.421 198.879C269.151 200.499 267.382 201.654 265.388 202.166C263.394 202.678 261.287 202.518 259.394 201.711C257.5 200.903 255.927 199.493 254.916 197.7C253.905 195.907 253.515 193.83 253.805 191.792C254.095 189.754 255.049 187.869 256.52 186.429L254.673 179.1L251.826 174.521C251.447 173.918 250.921 173.423 250.297 173.081C249.673 172.739 248.972 172.563 248.261 172.568H248.237C245.787 172.567 243.344 172.328 240.94 171.854C240.25 171.714 239.535 171.751 238.863 171.962C238.19 172.173 237.583 172.551 237.096 173.061L233.332 177.033L229.139 185.784C229.831 187.185 230.07 188.766 229.823 190.309C229.576 191.852 228.855 193.28 227.759 194.394C226.664 195.508 225.249 196.254 223.711 196.528C222.172 196.802 220.587 196.59 219.175 195.922C217.762 195.254 216.592 194.163 215.828 192.801C215.064 191.438 214.742 189.871 214.909 188.317C215.075 186.764 215.721 185.3 216.757 184.13C217.792 182.96 219.166 182.142 220.688 181.788L224.93 172.997L225.763 167.091C225.84 166.555 225.777 166.009 225.581 165.505C225.384 165.001 225.061 164.556 224.642 164.214C221.26 161.47 218.376 158.165 216.117 154.442C215.838 153.985 215.446 153.608 214.98 153.346C214.514 153.084 213.988 152.946 213.453 152.945L207.56 152.87L201.105 154.905C200.841 157.265 199.786 159.467 198.113 161.152C196.44 162.837 194.246 163.907 191.888 164.187C189.53 164.468 187.146 163.944 185.124 162.699C183.102 161.455 181.559 159.563 180.748 157.331C179.936 155.099 179.903 152.659 180.654 150.406C181.404 148.153 182.894 146.22 184.882 144.921C186.87 143.621 189.238 143.032 191.603 143.249C193.968 143.466 196.19 144.475 197.908 146.114L204.76 143.959L209.766 140.392C210.129 140.131 210.419 139.78 210.606 139.374C210.793 138.968 210.87 138.52 210.831 138.074C210.748 137.067 210.706 136.051 210.706 135.026C210.701 129.629 211.866 124.295 214.122 119.391C214.279 119.046 214.359 118.671 214.354 118.292C214.349 117.913 214.261 117.54 214.095 117.199L212.611 114.167L208.588 111.13C207.102 111.608 205.503 111.612 204.014 111.142C202.525 110.671 201.22 109.748 200.278 108.502C199.337 107.256 198.807 105.748 198.761 104.187C198.715 102.626 199.156 101.089 200.022 99.7903C200.889 98.491 202.138 97.4935 203.596 96.936C205.055 96.3784 206.651 96.2885 208.163 96.6786C209.676 97.0687 211.029 97.9195 212.036 99.1132C213.043 100.307 213.653 101.784 213.783 103.34L218.24 106.686L222.745 107.486C226.041 104.424 229.858 101.978 234.017 100.263L235.082 93.8538L233.75 87.2337C231.801 86.7651 230.02 85.7626 228.609 84.3387C227.197 82.9148 226.21 81.1258 225.758 79.1724C225.497 77.7867 225.517 76.3628 225.816 74.9849C226.115 73.607 226.688 72.3031 227.5 71.1503C228.312 69.9976 229.347 69.0194 230.543 68.2737C231.74 67.5279 233.074 67.0297 234.467 66.8086C237.295 66.2098 240.245 66.7331 242.695 68.2679C245.145 69.8027 246.903 72.229 247.598 75.0351C248.016 77.0832 247.796 79.2101 246.97 81.1298C246.143 83.0496 244.748 84.6703 242.973 85.7738L244.23 92.0183L247.318 96.9468C247.417 97.1051 247.555 97.2356 247.719 97.326C247.882 97.4164 248.066 97.4637 248.253 97.4636C255.074 97.4553 261.766 99.3175 267.602 102.848C267.755 102.94 267.927 102.993 268.105 103.003C268.283 103.012 268.461 102.978 268.622 102.904L273.457 100.663L279.103 94.5545C278.863 93.0106 279.109 91.4303 279.808 90.0328C280.507 88.6354 281.623 87.4901 283.002 86.7558C284.382 86.0216 285.955 85.7348 287.505 85.9352C289.054 86.1356 290.503 86.8134 291.65 87.8744C292.797 88.9354 293.585 90.327 293.905 91.8563C294.226 93.3856 294.062 94.9766 293.437 96.4086C292.812 97.8407 291.757 99.0428 290.418 99.8481C289.079 100.653 287.523 101.022 285.965 100.903L280.32 107.011L278.487 111.945C278.425 112.114 278.406 112.295 278.431 112.474C278.456 112.652 278.525 112.821 278.631 112.966C280.882 116.053 282.645 119.467 283.861 123.089C284.024 123.584 284.306 124.032 284.682 124.393C285.058 124.755 285.517 125.018 286.018 125.162L290.609 126.448L296.573 125.915C297.257 123.828 298.523 121.979 300.222 120.587C301.921 119.195 303.983 118.317 306.164 118.057C307.666 117.94 309.177 118.127 310.605 118.606C312.034 119.085 313.352 119.846 314.48 120.845C315.608 121.844 316.524 123.059 317.173 124.419C317.823 125.779 318.192 127.255 318.259 128.761V128.761Z" fill="#EB5569" fill-opacity="0.7"/>
<path d="M248.256 162.831C263.615 162.831 276.066 150.38 276.066 135.021C276.066 119.662 263.615 107.211 248.256 107.211C232.897 107.211 220.446 119.662 220.446 135.021C220.446 150.38 232.897 162.831 248.256 162.831Z" fill="#F58A97" fill-opacity="0.7"/>
<path d="M228.928 135.016C228.929 128.375 231.305 121.953 235.629 116.911C239.952 111.87 245.936 108.542 252.5 107.528C248.537 106.92 244.49 107.175 240.635 108.277C236.78 109.378 233.21 111.301 230.167 113.911C227.125 116.522 224.683 119.76 223.009 123.402C221.335 127.045 220.468 131.007 220.468 135.016C220.468 139.025 221.335 142.986 223.009 146.629C224.683 150.272 227.125 153.51 230.167 156.12C233.21 158.731 236.78 160.653 240.635 161.755C244.49 162.857 248.537 163.112 252.5 162.503C245.936 161.49 239.952 158.162 235.629 153.12C231.305 148.079 228.929 141.657 228.928 135.016V135.016Z" fill="#F07281" fill-opacity="0.7"/>
<path d="M201.467 84.4658C205.842 84.4658 209.388 80.9198 209.388 76.5456C209.388 72.1714 205.842 68.6255 201.467 68.6255C197.093 68.6255 193.547 72.1714 193.547 76.5456C193.547 80.9198 197.093 84.4658 201.467 84.4658Z" fill="#EB5569" fill-opacity="0.7"/>
<path d="M199.302 186.16C202.19 186.16 204.531 183.819 204.531 180.93C204.531 178.042 202.19 175.701 199.302 175.701C196.413 175.701 194.072 178.042 194.072 180.93C194.072 183.819 196.413 186.16 199.302 186.16Z" fill="#EB5569" fill-opacity="0.7"/>
<path d="M295.34 197.229C299.595 197.229 303.044 193.78 303.044 189.525C303.044 185.27 299.595 181.82 295.34 181.82C291.085 181.82 287.635 185.27 287.635 189.525C287.635 193.78 291.085 197.229 295.34 197.229Z" fill="#EB5569" fill-opacity="0.7"/>
<path d="M239.72 134.534C243.687 134.534 246.902 131.318 246.902 127.351C246.902 123.385 243.687 120.169 239.72 120.169C235.754 120.169 232.538 123.385 232.538 127.351C232.538 131.318 235.754 134.534 239.72 134.534Z" fill="#EB5569" fill-opacity="0.7"/>
<path d="M245.485 154.548C248.185 154.548 250.374 152.36 250.374 149.66C250.374 146.96 248.185 144.771 245.485 144.771C242.785 144.771 240.597 146.96 240.597 149.66C240.597 152.36 242.785 154.548 245.485 154.548Z" fill="#EB5569" fill-opacity="0.7"/>
<path d="M260.838 139.126C263.105 139.126 264.943 137.288 264.943 135.021C264.943 132.754 263.105 130.916 260.838 130.916C258.571 130.916 256.733 132.754 256.733 135.021C256.733 137.288 258.571 139.126 260.838 139.126Z" fill="#EB5569" fill-opacity="0.7"/>
<path fill-rule="evenodd" clip-rule="evenodd" d="M999.012 259.091C993.668 257.722 988.15 257.023 982.583 257.028C982.252 257.029 981.927 256.945 981.638 256.785C981.348 256.625 981.104 256.395 980.928 256.115L975.467 247.403L973.243 236.361C976.382 234.409 978.848 231.544 980.31 228.149C981.772 224.754 982.16 220.993 981.421 217.372C980.192 212.41 977.084 208.12 972.752 205.407C968.421 202.693 963.205 201.768 958.204 202.826C955.736 203.211 953.37 204.088 951.247 205.405C949.124 206.722 947.288 208.453 945.847 210.493C944.405 212.534 943.389 214.843 942.857 217.284C942.326 219.725 942.29 222.248 942.753 224.703C943.553 228.159 945.301 231.323 947.799 233.841C950.298 236.358 953.449 238.129 956.899 238.956L959.254 250.664L957.389 261.999C950.035 265.031 943.284 269.357 937.457 274.771L929.51 273.354L921.624 267.405C921.396 264.649 920.316 262.033 918.535 259.919C916.753 257.805 914.357 256.298 911.681 255.607C909.004 254.915 906.178 255.074 903.595 256.061C901.013 257.048 898.801 258.814 897.267 261.114C895.733 263.414 894.953 266.135 895.035 268.898C895.117 271.662 896.057 274.331 897.724 276.537C899.392 278.742 901.704 280.374 904.341 281.206C906.977 282.038 909.807 282.029 912.439 281.181L919.552 286.554L922.173 291.914C922.467 292.516 922.624 293.177 922.631 293.847C922.639 294.517 922.498 295.181 922.218 295.79C918.23 304.46 916.17 313.892 916.179 323.435C916.181 325.252 916.254 327.048 916.4 328.824C916.469 329.612 916.332 330.405 916.001 331.124C915.67 331.843 915.158 332.463 914.514 332.924L905.664 339.232L893.548 343.045C890.507 340.149 886.577 338.367 882.396 337.987C878.215 337.607 874.028 338.651 870.515 340.951C867.002 343.25 864.37 346.67 863.045 350.654C861.721 354.638 861.782 358.953 863.219 362.898C864.656 366.843 867.384 370.186 870.96 372.385C874.537 374.584 878.752 375.51 882.921 375.011C887.09 374.513 890.968 372.62 893.925 369.64C896.882 366.66 898.745 362.767 899.212 358.595L910.627 355.003L921.054 355.105C921.997 355.109 922.924 355.355 923.745 355.819C924.567 356.282 925.256 356.948 925.748 357.753C929.743 364.336 934.843 370.181 940.824 375.032C941.565 375.637 942.137 376.424 942.484 377.315C942.831 378.207 942.942 379.173 942.806 380.12L941.333 390.563L933.836 406.124C931.14 406.746 928.704 408.193 926.867 410.263C925.03 412.333 923.884 414.924 923.588 417.676C923.291 420.428 923.86 423.203 925.213 425.617C926.567 428.031 928.639 429.964 931.141 431.146C933.643 432.328 936.452 432.702 939.176 432.215C941.9 431.728 944.405 430.404 946.343 428.428C948.28 426.452 949.554 423.921 949.987 421.188C950.421 418.454 949.992 415.654 948.76 413.175L956.219 397.724L962.879 390.702C963.74 389.801 964.814 389.133 966.003 388.76C967.191 388.387 968.455 388.322 969.675 388.57C973.925 389.408 978.246 389.83 982.577 389.83H982.617C983.876 389.822 985.116 390.136 986.219 390.742C987.323 391.348 988.253 392.226 988.92 393.294L993.958 401.384L997.222 414.342C994.621 416.889 992.934 420.222 992.422 423.825C991.91 427.429 992.6 431.1 994.387 434.271C995.548 436.33 997.129 438.103 999.012 439.484V369.796C993.874 371.616 988.344 372.607 982.583 372.607C955.427 372.607 933.413 350.593 933.413 323.437C933.413 296.734 954.7 275.002 981.23 274.286C984.181 274.202 987.142 274.384 990.077 274.835L990.076 274.835C993.158 275.306 996.146 276.063 999.012 277.079V259.091Z" fill="#EB5569" fill-opacity="0.7"/>
<path d="M189.093 510.599C189.504 514.761 188.282 518.92 185.685 522.198C183.088 525.476 179.319 527.616 175.173 528.168C172.09 528.444 168.998 527.749 166.33 526.181C163.661 524.613 161.549 522.25 160.289 519.422L152.681 520.091L146.945 522.859C146.302 523.172 145.747 523.639 145.328 524.22C144.91 524.8 144.642 525.474 144.548 526.184C144.014 530.006 143.044 533.755 141.657 537.356C141.425 537.948 141.327 538.584 141.37 539.218C141.413 539.853 141.596 540.469 141.905 541.025L143.948 544.677L149.628 548.489C151.607 547.729 153.774 547.603 155.827 548.129C157.881 548.656 159.72 549.808 161.09 551.426C162.46 553.044 163.292 555.049 163.472 557.161C163.651 559.274 163.169 561.39 162.092 563.216C161.015 565.042 159.397 566.488 157.462 567.353C155.526 568.219 153.369 568.46 151.29 568.045C149.211 567.63 147.313 566.578 145.859 565.035C144.404 563.493 143.466 561.536 143.173 559.436L136.878 555.213L132.917 554.729C132.244 554.649 131.563 554.72 130.922 554.936C130.28 555.152 129.695 555.508 129.208 555.978C125.856 559.18 122.085 561.912 117.998 564.101C117.32 564.465 116.746 564.998 116.332 565.647C115.918 566.296 115.677 567.04 115.632 567.809L115.118 575.822L117.609 585.709C120.301 586.456 122.671 588.07 124.351 590.302C126.032 592.534 126.929 595.258 126.904 598.051C126.878 600.845 125.931 603.552 124.21 605.752C122.489 607.953 120.09 609.524 117.385 610.222C114.68 610.92 111.82 610.705 109.249 609.612C106.678 608.518 104.54 606.607 103.167 604.175C101.793 601.742 101.26 598.924 101.652 596.158C102.043 593.392 103.336 590.832 105.33 588.876L102.826 578.931L98.9608 572.716C98.449 571.896 97.7356 571.22 96.8887 570.754C96.0419 570.288 95.0897 570.046 94.1229 570.052H94.0909C90.7666 570.052 87.4503 569.728 84.1887 569.085C83.2519 568.894 82.282 568.944 81.3698 569.231C80.4575 569.517 79.6327 570.029 78.9725 570.721L73.8656 576.11L68.1459 587.976C69.0846 589.878 69.408 592.025 69.071 594.119C68.7341 596.213 67.7535 598.15 66.2656 599.662C64.7776 601.173 62.856 602.184 60.7675 602.554C58.6789 602.923 56.5271 602.634 54.6106 601.725C52.6941 600.816 51.1081 599.333 50.0727 597.482C49.0373 595.631 48.6038 593.504 48.8325 591.395C49.0611 589.286 49.9406 587.301 51.3487 585.715C52.7569 584.129 54.6239 583.021 56.6906 582.544L62.4449 570.601L63.5744 562.587C63.6788 561.861 63.5936 561.119 63.327 560.435C63.0605 559.751 62.6218 559.147 62.0533 558.682C57.4631 554.959 53.5492 550.473 50.4834 545.42C50.106 544.803 49.5771 544.292 48.9467 543.936C48.3163 543.58 47.6054 543.392 46.8816 543.388L38.8895 543.311L30.1275 546.065C29.7704 549.268 28.3408 552.257 26.0709 554.545C23.8011 556.834 20.8243 558.287 17.624 558.67C14.4237 559.053 11.1879 558.343 8.44206 556.655C5.69625 554.967 3.60173 552.401 2.49867 549.372C1.39561 546.344 1.3488 543.031 2.36583 539.973C3.38286 536.914 5.40401 534.289 8.10101 532.525C10.798 530.76 14.0125 529.958 17.2223 530.251C20.4322 530.543 23.4489 531.912 25.7825 534.136L35.0826 531.205L41.8573 526.375C42.3509 526.022 42.7439 525.546 42.9976 524.994C43.2512 524.442 43.3568 523.834 43.3038 523.229C43.1919 521.863 43.1351 520.484 43.1333 519.092C43.1261 511.767 44.7076 504.527 47.7687 497.873C47.983 497.405 48.0911 496.896 48.0851 496.381C48.0791 495.867 47.9592 495.36 47.7341 494.897L45.7228 490.784L40.2588 486.663C38.2413 487.311 36.0719 487.317 34.0513 486.677C32.0307 486.038 30.2589 484.786 28.9816 483.095C27.7044 481.404 26.9848 479.357 26.9226 477.239C26.8604 475.12 27.4587 473.035 28.6346 471.272C29.8105 469.509 31.5057 468.155 33.4853 467.398C35.4649 466.642 37.6309 466.52 39.6831 467.049C41.7352 467.578 43.5719 468.733 44.9385 470.353C46.3052 471.972 47.1342 473.977 47.3105 476.089L53.3632 480.655L59.4612 481.742C63.9336 477.587 69.1145 474.268 74.758 471.941L76.1886 463.243L74.3824 454.257C71.7346 453.623 69.316 452.263 67.398 450.33C65.48 448.398 64.1384 445.969 63.5238 443.316C63.1694 441.433 63.1969 439.498 63.6046 437.625C64.0124 435.753 64.7921 433.981 65.8976 432.416C67.003 430.85 68.4116 429.523 70.0399 428.512C71.6681 427.502 73.4827 426.829 75.3761 426.533C79.2136 425.72 83.2168 426.429 86.5413 428.511C89.8659 430.593 92.2518 433.885 93.1958 437.692C93.7632 440.472 93.4659 443.359 92.3438 445.964C91.2218 448.57 89.3287 450.77 86.9193 452.267L88.6243 460.736L92.8149 467.423C92.9497 467.638 93.1367 467.814 93.3585 467.937C93.5803 468.059 93.8295 468.124 94.0829 468.124C103.339 468.113 112.42 470.64 120.34 475.431C120.547 475.556 120.781 475.629 121.023 475.642C121.264 475.656 121.505 475.61 121.725 475.508L128.3 472.458L135.962 464.17C135.636 462.076 135.971 459.932 136.919 458.037C137.866 456.141 139.38 454.587 141.251 453.591C143.121 452.595 145.256 452.205 147.358 452.476C149.459 452.747 151.425 453.665 152.982 455.103C154.538 456.542 155.609 458.429 156.045 460.503C156.481 462.577 156.26 464.735 155.415 466.678C154.569 468.622 153.139 470.254 151.324 471.348C149.509 472.442 147.399 472.945 145.286 472.786L137.624 481.073L135.136 487.768C135.051 487.997 135.025 488.244 135.059 488.485C135.093 488.727 135.186 488.956 135.33 489.153C138.384 493.341 140.777 497.971 142.427 502.884C142.65 503.556 143.033 504.163 143.544 504.654C144.054 505.144 144.677 505.502 145.358 505.697L151.589 507.442L159.685 506.725C160.615 503.892 162.336 501.384 164.645 499.496C166.953 497.608 169.753 496.419 172.714 496.069C174.751 495.916 176.797 496.174 178.732 496.827C180.666 497.479 182.45 498.514 183.978 499.869C185.505 501.224 186.745 502.872 187.624 504.715C188.502 506.558 189.002 508.559 189.093 510.599V510.599Z" fill="#EB5569" fill-opacity="0.7"/>
<path d="M94.0936 556.831C114.936 556.831 131.832 539.934 131.832 519.092C131.832 498.249 114.936 481.353 94.0936 481.353C73.2511 481.353 56.3549 498.249 56.3549 519.092C56.3549 539.934 73.2511 556.831 94.0936 556.831Z" fill="#F58A97" fill-opacity="0.7"/>
<path d="M67.8582 519.092C67.8602 510.08 71.086 501.367 76.9526 494.527C82.8191 487.686 90.9393 483.17 99.8453 481.795C94.4661 480.965 88.9708 481.307 83.7364 482.8C78.5021 484.292 73.6526 486.899 69.5205 490.442C65.3884 493.985 62.0716 498.38 59.7976 503.325C57.5235 508.27 56.3461 513.649 56.3461 519.092C56.3461 524.535 57.5235 529.913 59.7976 534.859C62.0716 539.804 65.3884 544.199 69.5205 547.741C73.6526 551.284 78.5021 553.891 83.7364 555.384C88.9708 556.877 94.4661 557.219 99.8453 556.388C90.9393 555.013 82.8191 550.497 76.9526 543.657C71.086 536.817 67.8602 528.103 67.8582 519.092V519.092Z" fill="#F07281" fill-opacity="0.7"/>
<path d="M30.5964 450.485C36.5317 450.485 41.3431 445.674 41.3431 439.738C41.3431 433.803 36.5317 428.992 30.5964 428.992C24.6612 428.992 19.8497 433.803 19.8497 439.738C19.8497 445.674 24.6612 450.485 30.5964 450.485Z" fill="#EB5569" fill-opacity="0.7"/>
<path d="M27.6606 588.498C31.5817 588.498 34.7603 585.319 34.7603 581.398C34.7603 577.477 31.5817 574.299 27.6606 574.299C23.7396 574.299 20.561 577.477 20.561 581.398C20.561 585.319 23.7396 588.498 27.6606 588.498Z" fill="#EB5569" fill-opacity="0.7"/>
<path d="M157.99 603.515C163.765 603.515 168.447 598.834 168.447 593.059C168.447 587.284 163.765 582.602 157.99 582.602C152.216 582.602 147.534 587.284 147.534 593.059C147.534 598.834 152.216 603.515 157.99 603.515Z" fill="#EB5569" fill-opacity="0.7"/>
<path d="M82.5104 518.434C87.8939 518.434 92.2581 514.07 92.2581 508.686C92.2581 503.303 87.8939 498.938 82.5104 498.938C77.1269 498.938 72.7627 503.303 72.7627 508.686C72.7627 514.07 77.1269 518.434 82.5104 518.434Z" fill="#EB5569" fill-opacity="0.7"/>
<path d="M90.332 545.594C93.9955 545.594 96.9654 542.624 96.9654 538.96C96.9654 535.297 93.9955 532.327 90.332 532.327C86.6684 532.327 83.6985 535.297 83.6985 538.96C83.6985 542.624 86.6684 545.594 90.332 545.594Z" fill="#EB5569" fill-opacity="0.7"/>
<path d="M111.167 524.662C114.244 524.662 116.738 522.168 116.738 519.092C116.738 516.015 114.244 513.521 111.167 513.521C108.091 513.521 105.597 516.015 105.597 519.092C105.597 522.168 108.091 524.662 111.167 524.662Z" fill="#EB5569" fill-opacity="0.7"/>
</svg>
