<svg width="100" height="120" viewBox="0 0 100 120" fill="none" xmlns="http://www.w3.org/2000/svg">
<path d="M95 119.5H12.4726C9.99129 119.5 7.9726 117.481 7.9726 115V114.983L7.97145 114.966L0.500031 4.98355C0.508875 2.50973 2.52414 0.5 5 0.5H95C97.4813 0.5 99.5 2.51869 99.5 5V115C99.5 117.481 97.4813 119.5 95 119.5Z" fill="white" fill-opacity="0.2"/>
<path d="M5 1C2.80504 1 1.01732 2.77695 1.00013 4.96794L8.4703 114.932L8.4726 114.966V115C8.4726 117.206 10.267 119 12.4726 119H95C97.2056 119 99 117.206 99 115V5C99 2.7944 97.2056 1 95 1H5ZM5 0H95C97.7614 0 100 2.23859 100 5V115C100 117.761 97.7614 120 95 120H12.4726C9.71117 120 7.4726 117.761 7.4726 115L0 5C0 2.23859 2.23859 0 5 0Z" fill="#DDDDDD"/>
<path d="M17.228 13.27C18.264 13.27 19.1693 13.4707 19.944 13.872C20.728 14.264 21.33 14.8333 21.75 15.58C22.1793 16.3173 22.394 17.1807 22.394 18.17C22.394 19.1593 22.1793 20.018 21.75 20.746C21.33 21.474 20.728 22.034 19.944 22.426C19.1693 22.8087 18.264 23 17.228 23H14.05V13.27H17.228ZM17.228 21.698C18.3667 21.698 19.2393 21.39 19.846 20.774C20.4527 20.158 20.756 19.29 20.756 18.17C20.756 17.0407 20.4527 16.1587 19.846 15.524C19.2393 14.8893 18.3667 14.572 17.228 14.572H15.646V21.698H17.228ZM28.4138 23.098C27.5084 23.098 26.6731 22.888 25.9078 22.468C25.1518 22.0387 24.5498 21.446 24.1018 20.69C23.6631 19.9247 23.4438 19.066 23.4438 18.114C23.4438 17.162 23.6631 16.308 24.1018 15.552C24.5498 14.796 25.1518 14.208 25.9078 13.788C26.6731 13.3587 27.5084 13.144 28.4138 13.144C29.3284 13.144 30.1638 13.3587 30.9198 13.788C31.6851 14.208 32.2871 14.796 32.7258 15.552C33.1644 16.308 33.3838 17.162 33.3838 18.114C33.3838 19.066 33.1644 19.9247 32.7258 20.69C32.2871 21.446 31.6851 22.0387 30.9198 22.468C30.1638 22.888 29.3284 23.098 28.4138 23.098ZM28.4138 21.712C29.0578 21.712 29.6318 21.5673 30.1358 21.278C30.6398 20.9793 31.0318 20.5593 31.3118 20.018C31.6011 19.4673 31.7458 18.8327 31.7458 18.114C31.7458 17.3953 31.6011 16.7653 31.3118 16.224C31.0318 15.6827 30.6398 15.2673 30.1358 14.978C29.6318 14.6887 29.0578 14.544 28.4138 14.544C27.7698 14.544 27.1958 14.6887 26.6918 14.978C26.1878 15.2673 25.7911 15.6827 25.5018 16.224C25.2218 16.7653 25.0818 17.3953 25.0818 18.114C25.0818 18.8327 25.2218 19.4673 25.5018 20.018C25.7911 20.5593 26.1878 20.9793 26.6918 21.278C27.1958 21.5673 27.7698 21.712 28.4138 21.712ZM42.9483 23H41.3523L36.5503 15.734V23H34.9543V13.256H36.5503L41.3523 20.508V13.256H42.9483V23ZM50.9101 21.012H46.8361L46.1361 23H44.4701L47.9561 13.256H49.8041L53.2901 23H51.6101L50.9101 21.012ZM50.4621 19.71L48.8801 15.188L47.2841 19.71H50.4621ZM58.0119 23.098C57.3585 23.098 56.7705 22.986 56.2479 22.762C55.7252 22.5287 55.3145 22.202 55.0159 21.782C54.7172 21.362 54.5679 20.872 54.5679 20.312H56.2759C56.3132 20.732 56.4765 21.0773 56.7659 21.348C57.0645 21.6187 57.4799 21.754 58.0119 21.754C58.5625 21.754 58.9919 21.6233 59.2999 21.362C59.6079 21.0913 59.7619 20.746 59.7619 20.326C59.7619 19.9993 59.6639 19.7333 59.4679 19.528C59.2812 19.3227 59.0432 19.164 58.7539 19.052C58.4739 18.94 58.0819 18.8187 57.5779 18.688C56.9432 18.52 56.4252 18.352 56.0239 18.184C55.6319 18.0067 55.2959 17.736 55.0159 17.372C54.7359 17.008 54.5959 16.5227 54.5959 15.916C54.5959 15.356 54.7359 14.866 55.0159 14.446C55.2959 14.026 55.6879 13.704 56.1919 13.48C56.6959 13.256 57.2792 13.144 57.9419 13.144C58.8845 13.144 59.6545 13.382 60.2519 13.858C60.8585 14.3247 61.1945 14.9687 61.2599 15.79H59.4959C59.4679 15.4353 59.2999 15.132 58.9919 14.88C58.6839 14.628 58.2779 14.502 57.7739 14.502C57.3165 14.502 56.9432 14.6187 56.6539 14.852C56.3645 15.0853 56.2199 15.4213 56.2199 15.86C56.2199 16.1587 56.3085 16.406 56.4859 16.602C56.6725 16.7887 56.9059 16.938 57.1859 17.05C57.4659 17.162 57.8485 17.2833 58.3339 17.414C58.9779 17.5913 59.5005 17.7687 59.9019 17.946C60.3125 18.1233 60.6579 18.3987 60.9379 18.772C61.2272 19.136 61.3719 19.626 61.3719 20.242C61.3719 20.7367 61.2365 21.2033 60.9659 21.642C60.7045 22.0807 60.3172 22.4353 59.8039 22.706C59.2999 22.9673 58.7025 23.098 58.0119 23.098ZM64.8511 13.27V23H63.2551V13.27H64.8511Z" fill="#7EE1AB"/>
<path d="M56.166 120C51.7149 116.155 48.1453 111.395 45.7006 106.046C43.2559 100.696 41.9937 94.8819 42 89C42 78.1261 46.3196 67.6976 54.0086 60.0086C61.6976 52.3196 72.1261 48 83 48C88.8651 47.9916 94.6632 49.2464 100 51.679V115C100 116.326 99.4732 117.598 98.5355 118.536C97.5979 119.473 96.3261 120 95 120H56.166Z" fill="#7EE1AB"/>
<path d="M63.956 91.982C63.76 91.982 63.5684 92.0401 63.4054 92.149C63.2425 92.2579 63.1154 92.4127 63.0404 92.5938C62.9654 92.7748 62.9458 92.9741 62.984 93.1663C63.0223 93.3586 63.1167 93.5352 63.2553 93.6737C63.3938 93.8123 63.5704 93.9067 63.7627 93.945C63.9549 93.9832 64.1542 93.9636 64.3352 93.8886C64.5163 93.8136 64.6711 93.6865 64.78 93.5236C64.8889 93.3606 64.947 93.169 64.947 92.973C64.9467 92.7103 64.8422 92.4584 64.6564 92.2726C64.4707 92.0868 64.2187 91.9823 63.956 91.982Z" fill="white" fill-opacity="0.9"/>
<path fill-rule="evenodd" clip-rule="evenodd" d="M100 96.9855L95.214 98.631C95.3187 98.0599 95.2963 97.4728 95.1485 96.9113C95.0008 96.3498 94.7312 95.8278 94.3589 95.3822C93.9867 94.9367 93.5209 94.5785 92.9946 94.3333C92.4684 94.088 91.8946 93.9616 91.314 93.963H84.895C84.7244 93.9632 84.5567 93.9195 84.408 93.836L79.171 90.891C78.1329 90.307 76.9621 89.9999 75.771 89.999H68.742C68.5366 89.4202 68.1573 88.9191 67.6561 88.5643C67.1548 88.2095 66.5561 88.0183 65.942 88.017H59.991C59.7282 88.017 59.4761 88.1214 59.2903 88.3073C59.1044 88.4931 59 88.7452 59 89.008V106.848C59 106.978 59.0256 107.107 59.0754 107.227C59.1252 107.347 59.1982 107.457 59.2903 107.549C59.3823 107.641 59.4915 107.714 59.6118 107.764C59.732 107.813 59.8609 107.839 59.991 107.839H65.939C66.54 107.838 67.1266 107.655 67.6219 107.315C68.1171 106.974 68.4978 106.492 68.714 105.931C69.8434 106.046 70.9412 106.372 71.95 106.892L77.134 110.002C78.889 111.055 80.8735 111.666 82.917 111.783C84.9605 111.9 87.0017 111.518 88.865 110.671L100 105.768V103.604L88.05 108.866C86.4786 109.581 84.7569 109.904 83.0332 109.806C81.3094 109.708 79.6353 109.192 78.155 108.304L72.971 105.194C71.7119 104.522 70.3333 104.102 68.913 103.96V91.98H75.769C76.6202 91.9802 77.4571 92.1996 78.199 92.617L83.436 95.562C83.8814 95.8128 84.3839 95.9447 84.895 95.945H91.314C91.8398 95.945 92.344 96.1539 92.7158 96.5257C93.0876 96.8975 93.2965 97.4017 93.2965 97.9275C93.2965 98.4533 93.0876 98.9576 92.7158 99.3293C92.344 99.7011 91.8398 99.91 91.314 99.91H81.238C80.9752 99.91 80.7231 100.014 80.5373 100.2C80.3514 100.386 80.247 100.638 80.247 100.901C80.247 101.164 80.3514 101.416 80.5373 101.602C80.7231 101.788 80.9752 101.892 81.238 101.892H91.314C91.962 101.892 92.6 101.732 93.172 101.428L100 99.0808V96.9855ZM66.638 105.569C66.8237 105.384 66.9287 105.133 66.93 104.871V90.989C66.9297 90.7263 66.8252 90.4743 66.6395 90.2885C66.4537 90.1028 66.2017 89.9983 65.939 89.998H60.982V105.858H65.939C66.2011 105.858 66.4524 105.754 66.638 105.569Z" fill="white" fill-opacity="0.9"/>
<path fill-rule="evenodd" clip-rule="evenodd" d="M100 68.1659C98.6986 66.8264 96.9102 66 94.836 66C93.4901 66.0285 92.178 66.4266 91.0432 67.1508C89.9085 67.875 88.9947 68.8973 88.402 70.106C87.7616 68.7661 86.7229 67.6567 85.428 66.9296C84.1331 66.2024 82.6452 65.893 81.1678 66.0436C79.6904 66.1942 78.2955 66.7974 77.174 67.7709C76.0524 68.7443 75.2589 70.0405 74.902 71.482C74.859 71.6085 74.842 71.7425 74.8521 71.8757C74.8621 72.009 74.8991 72.1389 74.9606 72.2575C75.0222 72.3761 75.1071 72.4811 75.2103 72.566C75.3135 72.651 75.4328 72.7142 75.561 72.7519C75.6892 72.7895 75.8238 72.8009 75.9565 72.7852C76.0892 72.7695 76.2174 72.7271 76.3333 72.6606C76.4493 72.5941 76.5506 72.5049 76.6311 72.3982C76.7116 72.2916 76.7698 72.1697 76.802 72.04C77.0944 70.8876 77.7603 69.8646 78.6957 69.1308C79.631 68.3969 80.7832 67.9937 81.972 67.984C84.8 67.984 86.783 70.495 87.45 72.833C87.5079 73.0418 87.6326 73.2259 87.8051 73.3571C87.9776 73.4883 88.1883 73.5593 88.405 73.5593C88.6217 73.5593 88.8324 73.4883 89.0049 73.3571C89.1774 73.2259 89.3021 73.0418 89.36 72.833L89.3602 72.8322C89.3855 72.7451 90.767 67.984 94.839 67.984C97.3042 67.984 99.2901 69.6131 100 71.9981V68.1659ZM100 75.8725C99.0611 78.9752 95.8018 81.7603 90.7146 86.1073C90.0179 86.7027 89.287 87.3273 88.523 87.986C87.4753 87.0856 86.4773 86.247 85.5368 85.4566C82.4037 82.8238 79.9079 80.7266 78.332 78.663C78.2551 78.5545 78.1571 78.4626 78.0439 78.3928C77.9308 78.323 77.8047 78.2766 77.6733 78.2565C77.5418 78.2365 77.4077 78.243 77.2788 78.2759C77.15 78.3087 77.029 78.3672 76.9232 78.4477C76.8174 78.5283 76.7289 78.6293 76.663 78.7448C76.597 78.8603 76.555 78.9878 76.5394 79.1199C76.5238 79.2519 76.5349 79.3858 76.5721 79.5135C76.6094 79.6411 76.6719 79.76 76.756 79.863C78.4682 82.1054 81.0546 84.2785 84.2793 86.9877C85.4033 87.9321 86.6049 88.9417 87.874 90.042L87.87 90.043C88.0504 90.1995 88.2812 90.2856 88.52 90.2856C88.7588 90.2856 88.9896 90.1995 89.17 90.043C90.1137 89.2252 91.0154 88.4545 91.872 87.7224C95.4326 84.6791 98.2148 82.3012 100 79.9694V75.8725Z" fill="white" fill-opacity="0.9"/>
<path d="M75.752 74.735C75.556 74.735 75.3644 74.7931 75.2014 74.902C75.0385 75.0109 74.9114 75.1657 74.8364 75.3468C74.7614 75.5278 74.7418 75.7271 74.78 75.9193C74.8183 76.1116 74.9127 76.2881 75.0513 76.4267C75.1898 76.5653 75.3664 76.6597 75.5587 76.698C75.7509 76.7362 75.9502 76.7166 76.1312 76.6416C76.3123 76.5666 76.4671 76.4395 76.576 76.2766C76.6849 76.1136 76.743 75.922 76.743 75.726C76.7427 75.4633 76.6382 75.2113 76.4525 75.0255C76.2667 74.8398 76.0147 74.7353 75.752 74.735V74.735Z" fill="white" fill-opacity="0.9"/>
</svg>
