<svg width="35" height="35" viewBox="0 0 35 35" fill="none" xmlns="http://www.w3.org/2000/svg">
<path d="M17.5 35C27.165 35 35 27.165 35 17.5C35 7.83502 27.165 0 17.5 0C7.83502 0 0 7.83502 0 17.5C0 27.165 7.83502 35 17.5 35Z" fill="#BDEBD4"/>
<path d="M25.964 21.638C24.1002 22.0532 22.193 22.2416 20.284 22.199H17.164V17.36H26.342C26.4854 18.1096 26.7045 18.8427 26.996 19.548C27.0838 19.7516 27.1263 19.9718 27.1207 20.1934C27.115 20.415 27.0612 20.6327 26.963 20.8315C26.8649 21.0303 26.7247 21.2054 26.5522 21.3446C26.3797 21.4839 26.179 21.584 25.964 21.638V21.638Z" fill="#FD9C8C"/>
<path d="M17.164 17.36V22.199H14.044C12.135 22.2416 10.2278 22.0533 8.36399 21.638C8.14907 21.5839 7.94848 21.4837 7.77609 21.3444C7.6037 21.2051 7.46364 21.03 7.36559 20.8312C7.26753 20.6325 7.21384 20.4148 7.20821 20.1932C7.20258 19.9716 7.24516 19.7515 7.33299 19.548C7.62493 18.8428 7.84439 18.1097 7.98799 17.36H17.164Z" fill="#F98778"/>
<path d="M20.673 28.878H13.656L11.12 26.631C11.369 25.2167 12.1511 23.9518 13.305 23.097H21.022C22.176 23.9517 22.9581 25.2167 23.207 26.631L20.673 28.878Z" fill="#FD748D"/>
<path d="M17.164 25.994C18.2316 25.994 19.097 25.1286 19.097 24.061C19.097 22.9934 18.2316 22.128 17.164 22.128C16.0964 22.128 15.231 22.9934 15.231 24.061C15.231 25.1286 16.0964 25.994 17.164 25.994Z" fill="#FDD1BA"/>
<path d="M7.30299 15.861C7.30299 13.2457 8.34192 10.7375 10.1912 8.88822C12.0405 7.03892 14.5487 6 17.164 6C19.7793 6 22.2875 7.03892 24.1368 8.88822C25.9861 10.7375 27.025 13.2457 27.025 15.861H7.30299Z" fill="#FD9C8C"/>
<path d="M27.103 15.181C27.3751 15.7849 27.4089 16.4694 27.1975 17.0971C26.9861 17.7249 26.5452 18.2495 25.9632 18.5658C25.3812 18.8821 24.7012 18.9667 24.0594 18.8026C23.4177 18.6385 22.8617 18.2379 22.503 17.681L23.826 16.021L27.103 15.181Z" fill="#FDBC9A"/>
<path d="M10.274 15.644C10.3002 13.3907 11.0916 11.2133 12.5181 9.46895C13.9447 7.72459 15.9218 6.51689 18.125 6.044C17.808 6.016 17.488 6 17.164 6C14.5496 6.00291 12.0431 7.04277 10.1944 8.89144C8.34577 10.7401 7.30591 13.2466 7.30299 15.861H10.276C10.276 15.789 10.276 15.716 10.276 15.644H10.274Z" fill="#F98778"/>
<path d="M24.659 12.53C24.5714 12.3322 24.442 12.1557 24.2797 12.0126C24.1175 11.8695 23.9262 11.7632 23.719 11.701C22.2747 11.3137 20.9579 10.5529 19.901 9.495C19.7716 9.36048 19.5952 9.28135 19.4087 9.27426C19.2222 9.26718 19.0402 9.33268 18.901 9.457C16.701 11.406 12.675 11.78 10.894 11.848C10.6081 11.858 10.3312 11.9501 10.0962 12.1132C9.86128 12.2763 9.67825 12.5036 9.569 12.768C8.80493 14.6467 8.76345 16.7418 9.45258 18.6492C10.1417 20.5567 11.5126 22.1415 13.301 23.098H21.019C22.8485 22.1221 24.2408 20.4899 24.9161 18.5294C25.5914 16.5689 25.4995 14.4255 24.659 12.53Z" fill="#FDD1BA"/>
<path d="M27.144 14.249C27.0874 14.1379 27.0094 14.0391 26.9145 13.9582C26.8197 13.8773 26.7099 13.8159 26.5913 13.7774C26.4727 13.739 26.3477 13.7243 26.2234 13.7342C26.0991 13.744 25.978 13.7783 25.867 13.835L20.406 16.62L21.269 18.31L26.726 15.525C26.8373 15.4687 26.9364 15.391 27.0176 15.2964C27.0988 15.2018 27.1606 15.0921 27.1994 14.9736C27.2383 14.8551 27.2533 14.7301 27.2438 14.6058C27.2343 14.4815 27.2004 14.3602 27.144 14.249V14.249Z" fill="#BFE7F8"/>
<path d="M10.274 15.643C10.2731 14.3359 10.5407 13.0425 11.06 11.843L10.892 11.85C10.6061 11.86 10.3292 11.9521 10.0942 12.1152C9.85927 12.2783 9.67624 12.5057 9.56699 12.77C9.16825 13.7523 8.96447 14.8028 8.96699 15.863C8.96699 15.894 8.96699 15.924 8.96699 15.955L7.22699 15.184C7.05277 15.5765 6.97754 16.0058 7.00791 16.4341C7.03828 16.8625 7.17332 17.2769 7.40118 17.6409C7.62904 18.0049 7.94275 18.3074 8.31478 18.5218C8.68682 18.7363 9.10581 18.8562 9.53499 18.871C10.2518 20.6832 11.5885 22.1821 13.307 23.101H13.798C12.6986 22.1932 11.8128 21.0543 11.2037 19.7653C10.5946 18.4762 10.2772 17.0687 10.274 15.643Z" fill="#FDBC9A"/>
<path d="M7.18399 14.249C7.24063 14.1379 7.3186 14.0391 7.41344 13.9582C7.50828 13.8773 7.61813 13.8159 7.73672 13.7774C7.85531 13.739 7.98031 13.7243 8.10458 13.7342C8.22886 13.744 8.34996 13.7783 8.46099 13.835L13.918 16.62L13.055 18.31L7.59799 15.525C7.37396 15.4106 7.20452 15.2119 7.12689 14.9727C7.04926 14.7334 7.0698 14.4731 7.18399 14.249V14.249Z" fill="#BFE7F8"/>
<path d="M14.363 23.098H13.306C12.152 23.9527 11.3699 25.2177 11.121 26.632L12.387 27.754C12.4503 26.0117 13.1538 24.354 14.363 23.098V23.098Z" fill="#FD5F7E"/>
<path d="M22.755 18.844C22.325 22.123 21.069 23.063 21.024 23.096C19.8364 23.7278 18.5117 24.0583 17.1665 24.0583C15.8212 24.0583 14.4966 23.7278 13.309 23.096V23.096C13.263 23.063 12.009 22.123 11.578 18.844C11.5267 18.4485 11.568 18.0466 11.6987 17.6698C11.8293 17.293 12.0458 16.9518 12.331 16.673C12.9361 15.9864 13.6804 15.4365 14.5145 15.0598C15.3486 14.6831 16.2533 14.4883 17.1685 14.4883C18.0837 14.4883 18.9884 14.6831 19.8225 15.0598C20.6566 15.4365 21.4009 15.9864 22.006 16.673C22.2904 16.9521 22.5062 17.2936 22.6361 17.6703C22.7661 18.0471 22.8068 18.4489 22.755 18.844V18.844Z" fill="#78C9EA"/>
<path d="M19.57 19.622H14.758C14.6664 19.622 14.5785 19.5856 14.5137 19.5208C14.4489 19.456 14.4125 19.3681 14.4125 19.2765C14.4125 19.1849 14.4489 19.097 14.5137 19.0322C14.5785 18.9674 14.6664 18.931 14.758 18.931H19.57C19.6616 18.931 19.7495 18.9674 19.8143 19.0322C19.8791 19.097 19.9155 19.1849 19.9155 19.2765C19.9155 19.3681 19.8791 19.456 19.8143 19.5208C19.7495 19.5856 19.6616 19.622 19.57 19.622V19.622Z" fill="#BFE7F8"/>
<path d="M19.57 17.906C19.5272 17.9058 19.4848 17.8977 19.445 17.882C17.9661 17.3797 16.3628 17.3797 14.884 17.882C14.8418 17.8985 14.7967 17.9065 14.7514 17.9056C14.7061 17.9046 14.6614 17.8948 14.6199 17.8766C14.5784 17.8584 14.5409 17.8322 14.5095 17.7995C14.4781 17.7668 14.4535 17.7282 14.437 17.686C14.4205 17.6438 14.4125 17.5987 14.4134 17.5534C14.4144 17.5081 14.4242 17.4634 14.4424 17.4219C14.4606 17.3804 14.4868 17.3429 14.5195 17.3115C14.5522 17.2801 14.5908 17.2555 14.633 17.239C16.2733 16.6738 18.0556 16.6738 19.696 17.239C19.7714 17.268 19.8342 17.3225 19.8735 17.393C19.9128 17.4636 19.9261 17.5457 19.9112 17.6251C19.8962 17.7044 19.8538 17.776 19.7915 17.8273C19.7291 17.8787 19.6508 17.9065 19.57 17.906V17.906Z" fill="#BFE7F8"/>
<path d="M17.165 21.738C16.3027 21.7499 15.4453 21.6063 14.634 21.314C14.5918 21.2975 14.5532 21.2729 14.5205 21.2415C14.4878 21.2101 14.4616 21.1726 14.4434 21.1311C14.4252 21.0896 14.4154 21.0449 14.4144 20.9996C14.4135 20.9543 14.4215 20.9092 14.438 20.867C14.4545 20.8248 14.4791 20.7862 14.5105 20.7535C14.5419 20.7208 14.5794 20.6946 14.6209 20.6764C14.6624 20.6582 14.7071 20.6484 14.7524 20.6474C14.7977 20.6465 14.8428 20.6545 14.885 20.671C16.3638 21.1733 17.9671 21.1733 19.446 20.671C19.4882 20.6545 19.5333 20.6465 19.5786 20.6474C19.6239 20.6484 19.6686 20.6582 19.7101 20.6764C19.7516 20.6946 19.7891 20.7208 19.8205 20.7535C19.8519 20.7862 19.8765 20.8248 19.893 20.867C19.9095 20.9092 19.9175 20.9543 19.9165 20.9996C19.9156 21.0449 19.9058 21.0896 19.8876 21.1311C19.8694 21.1726 19.8432 21.2101 19.8105 21.2415C19.7778 21.2729 19.7392 21.2975 19.697 21.314C18.8854 21.6064 18.0276 21.75 17.165 21.738V21.738Z" fill="#BFE7F8"/>
<path d="M12.957 14.745C12.8655 14.745 12.7777 14.7087 12.713 14.644C12.6483 14.5793 12.612 14.4915 12.612 14.4V13.592C12.612 13.5004 12.6484 13.4125 12.7132 13.3477C12.778 13.2829 12.8659 13.2465 12.9575 13.2465C13.0491 13.2465 13.137 13.2829 13.2018 13.3477C13.2666 13.4125 13.303 13.5004 13.303 13.592V14.4C13.303 14.4454 13.294 14.4903 13.2766 14.5323C13.2592 14.5742 13.2337 14.6123 13.2016 14.6443C13.1694 14.6764 13.1313 14.7017 13.0893 14.719C13.0473 14.7363 13.0024 14.7451 12.957 14.745Z" fill="#423E4F"/>
<path d="M21.37 14.745C21.3247 14.745 21.2798 14.7361 21.238 14.7187C21.1961 14.7014 21.1581 14.676 21.126 14.644C21.094 14.6119 21.0686 14.5739 21.0512 14.532C21.0339 14.4902 21.025 14.4453 21.025 14.4V13.592C21.025 13.5005 21.0613 13.4128 21.126 13.3481C21.1907 13.2834 21.2785 13.247 21.37 13.247C21.4615 13.247 21.5493 13.2834 21.614 13.3481C21.6787 13.4128 21.715 13.5005 21.715 13.592V14.4C21.715 14.4915 21.6787 14.5793 21.614 14.644C21.5493 14.7087 21.4615 14.745 21.37 14.745V14.745Z" fill="#423E4F"/>
<path d="M13.655 26.636V28.883H10.872C10.8667 28.1269 10.95 27.3728 11.12 26.636H13.655Z" fill="#FDD1BA"/>
<path d="M23.452 28.879H20.669V26.636H23.205C23.3744 27.3715 23.4573 28.1243 23.452 28.879V28.879Z" fill="#FDD1BA"/>
<path d="M10.274 15.644C10.274 15.353 10.288 15.065 10.313 14.78L8.46099 13.835C8.34974 13.7753 8.22769 13.7383 8.10199 13.7263C7.97628 13.7144 7.84945 13.7276 7.72893 13.7653C7.60841 13.803 7.49662 13.8643 7.4001 13.9457C7.30359 14.0272 7.2243 14.127 7.16687 14.2395C7.10944 14.3519 7.07504 14.4747 7.06567 14.6007C7.0563 14.7266 7.07215 14.8531 7.1123 14.9728C7.15245 15.0926 7.21609 15.2031 7.29949 15.2979C7.38289 15.3927 7.48438 15.4699 7.598 15.525L10.36 16.935C10.3024 16.5071 10.2737 16.0758 10.274 15.644Z" fill="#8ED1EF"/>
<path d="M12.382 27.979C12.3819 27.5268 12.4261 27.0756 12.514 26.632H11.119C10.949 27.3688 10.8657 28.1229 10.871 28.879H12.44C12.4012 28.5806 12.3818 28.2799 12.382 27.979Z" fill="#FDBC9A"/>
</svg>
