<svg width="34" height="34" viewBox="0 0 34 34" fill="none" xmlns="http://www.w3.org/2000/svg">
<path d="M17 34C26.3888 34 34 26.3888 34 17C34 7.61116 26.3888 0 17 0C7.61116 0 0 7.61116 0 17C0 26.3888 7.61116 34 17 34Z" fill="#C1EFD8"/>
<path d="M17.462 7.482C15.6029 7.482 13.7855 8.0333 12.2396 9.06618C10.6938 10.0991 9.489 11.5671 8.77753 13.2848C8.06607 15.0024 7.87992 16.8924 8.24262 18.7159C8.60532 20.5393 9.50058 22.2142 10.8152 23.5288C12.1298 24.8434 13.8047 25.7387 15.6282 26.1014C17.4516 26.4641 19.3416 26.2779 21.0592 25.5665C22.7768 24.855 24.2449 23.6502 25.2778 22.1044C26.3107 20.5585 26.862 18.7411 26.862 16.882C26.862 14.389 25.8717 11.998 24.1088 10.2352C22.346 8.47236 19.955 7.482 17.462 7.482ZM17.462 22.872C16.2787 22.871 15.1223 22.5193 14.1388 21.8613C13.1553 21.2032 12.389 20.2685 11.9366 19.1751C11.4843 18.0816 11.3662 16.8787 11.5972 15.7182C11.8283 14.5577 12.3983 13.4917 13.235 12.655C14.0717 11.8183 15.1377 11.2483 16.2982 11.0173C17.4587 10.7862 18.6616 10.9043 19.7551 11.3566C20.8485 11.809 21.7832 12.5753 22.4413 13.5588C23.0993 14.5423 23.451 15.6987 23.452 16.882C23.4527 17.6688 23.2982 18.448 22.9974 19.1751C22.6966 19.9021 22.2554 20.5627 21.699 21.119C21.1427 21.6754 20.4821 22.1166 19.7551 22.4174C19.028 22.7182 18.2488 22.8727 17.462 22.872V22.872Z" fill="#C1EFD8"/>
<path d="M11.696 12.185H6.13901C5.85549 12.185 5.58359 12.2976 5.38311 12.4981C5.18263 12.6986 5.07001 12.9705 5.07001 13.254V17.529C5.07001 17.8125 5.18263 18.0844 5.38311 18.2849C5.58359 18.4854 5.85549 18.598 6.13901 18.598H6.78001V25.652C6.78001 25.9355 6.89263 26.2074 7.09311 26.4079C7.29359 26.6084 7.56549 26.721 7.84901 26.721H9.98601C10.2695 26.721 10.5414 26.6084 10.7419 26.4079C10.9424 26.2074 11.055 25.9355 11.055 25.652V18.598H11.696C11.9795 18.598 12.2514 18.4854 12.4519 18.2849C12.6524 18.0844 12.765 17.8125 12.765 17.529V13.254C12.765 12.9705 12.6524 12.6986 12.4519 12.4981C12.2514 12.2976 11.9795 12.185 11.696 12.185V12.185Z" fill="#8FE4B6"/>
<path d="M10 8.5C10 7.67157 9.32843 7 8.5 7C7.67157 7 7 7.67157 7 8.5V9.5C7 10.3284 7.67157 11 8.5 11C9.32843 11 10 10.3284 10 9.5V8.5Z" fill="#8FE4B6"/>
<path d="M28.796 12.185H23.239C22.9555 12.185 22.6836 12.2976 22.4831 12.4981C22.2826 12.6986 22.17 12.9705 22.17 13.254V17.529C22.17 17.6694 22.1976 17.8084 22.2514 17.9381C22.3051 18.0678 22.3839 18.1856 22.4831 18.2849C22.5824 18.3842 22.7002 18.4629 22.8299 18.5166C22.9596 18.5704 23.0986 18.598 23.239 18.598H23.88V25.652C23.88 25.9355 23.9926 26.2074 24.1931 26.4079C24.3936 26.6084 24.6655 26.721 24.949 26.721H27.086C27.3695 26.721 27.6414 26.6084 27.8419 26.4079C28.0424 26.2074 28.155 25.9355 28.155 25.652V18.598H28.796C29.0795 18.598 29.3514 18.4854 29.5519 18.2849C29.7524 18.0844 29.865 17.8125 29.865 17.529V13.254C29.865 13.1136 29.8373 12.9746 29.7836 12.8449C29.7299 12.7152 29.6512 12.5974 29.5519 12.4981C29.4526 12.3988 29.3348 12.3201 29.2051 12.2664C29.0754 12.2127 28.9364 12.185 28.796 12.185Z" fill="#8FE4B6"/>
<path d="M28 9C28 7.89543 27.1046 7 26 7C24.8954 7 24 7.89543 24 9C24 10.1046 24.8954 11 26 11C27.1046 11 28 10.1046 28 9Z" fill="#8FE4B6"/>
<path d="M25.59 13.467H26.445V14.749H25.59V13.467Z" fill="#7EE1AB"/>
<path d="M25.59 15.604H26.445V16.459H25.59V15.604Z" fill="#7EE1AB"/>
<path d="M8.49001 13.467H9.34501V14.749H8.49001V13.467Z" fill="#7EE1AB"/>
<path d="M8.49001 15.604H9.34501V16.459H8.49001V15.604Z" fill="#7EE1AB"/>
<path d="M21.737 25.864H13.187V25.437H12.337V27.147H13.192V26.72H21.742V27.147H22.597V25.437H21.737V25.864Z" fill="#A0E9C1"/>
<path d="M8.49001 19.025H9.34501V26.72H8.49001V19.025Z" fill="#7EE1AB"/>
<path d="M5.925 13.895H6.78V18.595H5.925V13.895Z" fill="#7EE1AB"/>
<path d="M11.055 13.895H11.91V18.595H11.055V13.895Z" fill="#7EE1AB"/>
<path d="M25.589 19.025H26.444V26.72H25.589V19.025Z" fill="#7EE1AB"/>
<path d="M23.025 13.895H23.88V18.595H23.025V13.895Z" fill="#7EE1AB"/>
<path d="M28.154 13.895H29.009V18.595H28.154V13.895Z" fill="#7EE1AB"/>
</svg>
