<svg width="35" height="35" viewBox="0 0 35 35" fill="none" xmlns="http://www.w3.org/2000/svg">
<path d="M0.506012 13.241C1.48358 9.2915 3.8121 5.80844 7.08806 3.39546C10.364 0.982483 14.3809 -0.208343 18.4427 0.0293566C22.5045 0.267056 26.3551 1.9183 29.3272 4.69693C32.2993 7.47555 34.2057 11.2064 34.7159 15.243C35.2261 19.2796 34.308 23.3675 32.1207 26.7983C29.9334 30.229 26.6148 32.7864 22.7399 34.0273C18.865 35.2681 14.6781 35.1142 10.9048 33.5922C7.13147 32.0703 4.00953 29.2761 2.08001 25.694L0.506012 13.241Z" fill="#BDEBD4"/>
<path d="M17.428 34.857C22.0503 34.857 26.4833 33.0209 29.7518 29.7525C33.0204 26.4842 34.8567 22.0513 34.857 17.429C34.857 16.877 34.83 16.329 34.78 15.793L31.98 12.993L31.853 13.099L26.671 7.91702L23.871 10.968L17.189 4.28603L14.662 6.69202L20.224 12.254L16.812 14.782L10.112 8.08202L9.35101 9.30702L15.672 15.628L2.08101 25.695C3.57334 28.4657 5.78816 30.7805 8.4903 32.3937C11.1924 34.0068 14.281 34.8581 17.428 34.857V34.857Z" fill="#A0E9C1"/>
<path d="M29.453 18.146C29.6192 18.146 29.7837 18.1125 29.9367 18.0475C30.0897 17.9825 30.228 17.8873 30.3433 17.7676C30.4587 17.648 30.5488 17.5063 30.6082 17.351C30.6676 17.1958 30.6951 17.0302 30.689 16.864C30.6723 16.5408 30.5314 16.2364 30.2957 16.0145C30.06 15.7926 29.7477 15.6703 29.424 15.673H21.143V15.204H28.82C28.9853 15.2087 29.1499 15.1802 29.3041 15.1202C29.4582 15.0602 29.5987 14.9699 29.7173 14.8546C29.836 14.7393 29.9302 14.6014 29.9946 14.449C30.059 14.2967 30.0922 14.1329 30.0922 13.9675C30.0922 13.8021 30.059 13.6384 29.9946 13.486C29.9302 13.3337 29.836 13.1958 29.7173 13.0805C29.5987 12.9652 29.4582 12.8749 29.3041 12.8149C29.1499 12.7548 28.9853 12.7263 28.82 12.731H21.62C21.62 12.731 21.62 13.237 21.62 13.239C21.5218 13.6521 21.2942 14.023 20.9704 14.2977C20.6466 14.5724 20.2436 14.7364 19.82 14.766H19.727H15.857V13.966H19.682C19.8564 13.9661 20.029 13.9311 20.1896 13.8631C20.3502 13.7951 20.4955 13.6955 20.6168 13.5702C20.7381 13.4449 20.8329 13.2965 20.8957 13.1337C20.9584 12.971 20.9878 12.7973 20.982 12.623C20.9655 12.283 20.818 11.9625 20.5704 11.7287C20.3229 11.4949 19.9945 11.3661 19.654 11.369H12.354C11.7443 11.3697 11.1479 11.5468 10.6367 11.879C10.1254 12.2111 9.72128 12.6842 9.47301 13.241V13.241H0.50701C-0.146165 15.9014 -0.168424 18.6776 0.442009 21.348H9.63501C9.92788 21.8697 10.3435 22.3122 10.8458 22.6372C11.3481 22.9621 11.9221 23.1598 12.518 23.213V23.228H25.033C25.2918 23.2281 25.5402 23.1266 25.725 22.9454C25.9097 22.7642 26.016 22.5178 26.021 22.259C26.0207 22.1263 25.9943 21.9949 25.9432 21.8724C25.892 21.7499 25.8172 21.6386 25.723 21.5451C25.6288 21.4515 25.5171 21.3775 25.3942 21.3272C25.2713 21.2769 25.1398 21.2514 25.007 21.252H19.874V20.863H27.493C27.8017 20.863 28.0978 20.7404 28.3161 20.5221C28.5344 20.3038 28.657 20.0078 28.657 19.699C28.657 19.3903 28.5344 19.0943 28.3161 18.876C28.0978 18.6577 27.8017 18.535 27.493 18.535H20.579V18.146H29.453ZM15.853 14.771C15.853 14.771 15.855 14.771 15.854 14.772L15.853 14.771Z" fill="#FFBEAA"/>
<path d="M19.675 13.962C19.8494 13.9621 20.0221 13.9271 20.1826 13.8591C20.3432 13.7911 20.4885 13.6915 20.6098 13.5662C20.7311 13.4409 20.8259 13.2925 20.8887 13.1297C20.9514 12.967 20.9808 12.7933 20.975 12.619C20.9585 12.279 20.811 11.9585 20.5634 11.7247C20.3159 11.4909 19.9875 11.3621 19.647 11.365H17.417V13.965L19.675 13.962Z" fill="#E09380"/>
<path d="M29.423 15.673H21.142V15.204H28.819C28.9843 15.2087 29.1489 15.1802 29.3031 15.1202C29.4572 15.0602 29.5977 14.9698 29.7163 14.8546C29.8349 14.7393 29.9292 14.6014 29.9936 14.449C30.058 14.2967 30.0912 14.1329 30.0912 13.9675C30.0912 13.8021 30.058 13.6384 29.9936 13.486C29.9292 13.3337 29.8349 13.1958 29.7163 13.0805C29.5977 12.9652 29.4572 12.8749 29.3031 12.8149C29.1489 12.7548 28.9843 12.7263 28.819 12.731H21.619C21.619 12.731 21.619 13.237 21.619 13.239C21.5208 13.6521 21.2932 14.023 20.9694 14.2977C20.6456 14.5723 20.2426 14.7364 19.819 14.766H19.726H17.42V23.231H25.035C25.2938 23.2311 25.5422 23.1296 25.727 22.9484C25.9117 22.7672 26.018 22.5208 26.023 22.262C26.0227 22.1293 25.9963 21.9979 25.9452 21.8754C25.894 21.7528 25.8192 21.6416 25.725 21.5481C25.6308 21.4545 25.5191 21.3805 25.3962 21.3302C25.2733 21.2799 25.1418 21.2544 25.009 21.255H19.875V20.866H27.494C27.8027 20.866 28.0988 20.7434 28.3171 20.5251C28.5354 20.3068 28.658 20.0107 28.658 19.702C28.658 19.3933 28.5354 19.0973 28.3171 18.879C28.0988 18.6607 27.8027 18.538 27.494 18.538H20.575V18.149H29.449C29.6152 18.149 29.7797 18.1155 29.9327 18.0505C30.0857 17.9854 30.224 17.8903 30.3394 17.7706C30.4547 17.6509 30.5448 17.5092 30.6042 17.354C30.6636 17.1988 30.691 17.0331 30.685 16.867C30.669 16.5437 30.5289 16.2391 30.2938 16.0166C30.0586 15.7942 29.7467 15.6711 29.423 15.673V15.673Z" fill="#E09380"/>
<path d="M20.145 13.538C20.0934 12.9052 19.9095 12.2903 19.6053 11.7331C19.301 11.1759 18.8831 10.6888 18.3787 10.3033C17.8742 9.91779 17.2945 9.6425 16.6769 9.49524C16.0593 9.34798 15.4177 9.33204 14.7936 9.44843C14.1695 9.56482 13.5767 9.81096 13.0538 10.1709C12.5308 10.5309 12.0892 10.9966 11.7577 11.5381C11.4261 12.0795 11.2119 12.6845 11.1289 13.3139C11.0459 13.9433 11.0961 14.5832 11.276 15.192C10.7991 15.5654 10.4172 16.0463 10.1616 16.5954C9.906 17.1445 9.78385 17.7462 9.80516 18.3516C9.82647 18.9569 9.99062 19.5485 10.2842 20.0783C10.5778 20.6081 10.9925 21.0609 11.4945 21.3998C11.9965 21.7387 12.5716 21.9541 13.1727 22.0284C13.7738 22.1027 14.3839 22.0338 14.9533 21.8273C15.5227 21.6208 16.0352 21.2826 16.449 20.8402C16.8627 20.3979 17.166 19.8639 17.334 19.282C17.7131 19.4848 18.1292 19.6091 18.5575 19.6475C18.9857 19.6859 19.4173 19.6375 19.8264 19.5054C20.2355 19.3733 20.6139 19.1601 20.9388 18.8786C21.2637 18.597 21.5286 18.2529 21.7175 17.8667C21.9065 17.4805 22.0157 17.0601 22.0386 16.6308C22.0615 16.2015 21.9977 15.7719 21.8509 15.3678C21.7041 14.9637 21.4774 14.5933 21.1843 14.2788C20.8912 13.9642 20.5378 13.712 20.145 13.537V13.538Z" fill="white"/>
<path d="M20.144 13.538C20.0504 12.4171 19.5442 11.3707 18.7234 10.6015C17.9026 9.83225 16.8257 9.39488 15.701 9.37402V21.431C16.494 20.9438 17.0761 20.1776 17.333 19.283C17.7121 19.4858 18.1282 19.6101 18.5565 19.6485C18.9847 19.6868 19.4162 19.6385 19.8254 19.5064C20.2345 19.3743 20.6129 19.1611 20.9378 18.8796C21.2627 18.598 21.5276 18.2538 21.7165 17.8676C21.9055 17.4815 22.0147 17.0612 22.0376 16.6318C22.0605 16.2025 21.9967 15.7729 21.8499 15.3688C21.7031 14.9647 21.4764 14.5943 21.1833 14.2798C20.8902 13.9652 20.5368 13.7129 20.144 13.538V13.538Z" fill="#E9EDF5"/>
<path d="M28.055 20.021H19.774V19.552H27.451C27.6163 19.5567 27.7809 19.5282 27.9351 19.4682C28.0892 19.4082 28.2297 19.3178 28.3483 19.2026C28.467 19.0873 28.5612 18.9494 28.6256 18.797C28.69 18.6447 28.7232 18.4809 28.7232 18.3155C28.7232 18.1501 28.69 17.9864 28.6256 17.834C28.5612 17.6817 28.467 17.5438 28.3483 17.4285C28.2297 17.3132 28.0892 17.2229 27.9351 17.1629C27.7809 17.1028 27.6163 17.0743 27.451 17.079H20.251C20.251 17.079 20.251 17.585 20.251 17.587C20.1528 18.0001 19.9252 18.371 19.6014 18.6457C19.2776 18.9203 18.8746 19.0844 18.451 19.114H18.358H14.488V18.314H18.313C18.4874 18.3141 18.66 18.2791 18.8206 18.2111C18.9812 18.1431 19.1265 18.0435 19.2478 17.9182C19.3691 17.7929 19.4639 17.6445 19.5267 17.4817C19.5894 17.319 19.6188 17.1453 19.613 16.971C19.5965 16.6309 19.449 16.3105 19.2014 16.0767C18.9539 15.8429 18.6255 15.714 18.285 15.717H10.985C10.3753 15.7177 9.77888 15.8948 9.26765 16.2269C8.75642 16.5591 8.35228 17.0322 8.10401 17.589V17.589H0.00100708C0.0219403 20.4213 0.736068 23.2054 2.08101 25.698H8.26601C8.55887 26.2197 8.97446 26.6622 9.4768 26.9872C9.97914 27.3121 10.5531 27.5098 11.149 27.563V27.578H23.664C23.9228 27.5781 24.1712 27.4766 24.356 27.2954C24.5407 27.1142 24.647 26.8678 24.652 26.609C24.6517 26.4763 24.6253 26.3449 24.5742 26.2224C24.523 26.0998 24.4482 25.9886 24.354 25.8951C24.2598 25.8015 24.1481 25.7275 24.0252 25.6772C23.9023 25.6269 23.7708 25.6014 23.638 25.602H18.506V25.213H26.125C26.4337 25.213 26.7298 25.0904 26.9481 24.8721C27.1664 24.6538 27.289 24.3577 27.289 24.049C27.289 23.7403 27.1664 23.4442 26.9481 23.226C26.7298 23.0077 26.4337 22.885 26.125 22.885H19.21V22.498H28.084C28.2502 22.498 28.4147 22.4645 28.5677 22.3995C28.7207 22.3344 28.859 22.2393 28.9743 22.1196C29.0897 21.9999 29.1798 21.8583 29.2392 21.703C29.2986 21.5478 29.3261 21.3821 29.32 21.216C29.3043 20.892 29.1638 20.5867 28.928 20.364C28.6922 20.1412 28.3794 20.0183 28.055 20.021V20.021ZM14.486 19.121C14.486 19.121 14.491 19.119 14.486 19.12V19.121Z" fill="#FFDECF"/>
<path d="M18.31 18.31C18.4844 18.3101 18.657 18.2751 18.8176 18.2071C18.9782 18.1391 19.1235 18.0395 19.2448 17.9142C19.3661 17.7889 19.4609 17.6405 19.5237 17.4777C19.5864 17.315 19.6158 17.1413 19.61 16.967C19.5935 16.627 19.446 16.3065 19.1985 16.0727C18.9509 15.8389 18.6225 15.71 18.282 15.713H15.701V18.313L18.31 18.31Z" fill="#FFBEAA"/>
<path d="M28.054 20.021H19.771V19.552H27.448C27.6134 19.5567 27.778 19.5282 27.9321 19.4682C28.0862 19.4082 28.2267 19.3178 28.3454 19.2026C28.464 19.0873 28.5582 18.9494 28.6226 18.797C28.687 18.6447 28.7202 18.4809 28.7202 18.3155C28.7202 18.1501 28.687 17.9864 28.6226 17.834C28.5582 17.6817 28.464 17.5438 28.3454 17.4285C28.2267 17.3132 28.0862 17.2229 27.9321 17.1629C27.778 17.1028 27.6134 17.0743 27.448 17.079H20.248C20.248 17.079 20.248 17.585 20.248 17.587C20.1498 18.0001 19.9222 18.371 19.5984 18.6457C19.2746 18.9203 18.8716 19.0844 18.448 19.114H18.355H15.701V27.573H23.663C23.9218 27.5731 24.1702 27.4716 24.355 27.2904C24.5397 27.1092 24.646 26.8627 24.651 26.604C24.6508 26.4713 24.6243 26.3399 24.5732 26.2174C24.522 26.0948 24.4472 25.9836 24.353 25.8901C24.2588 25.7965 24.1471 25.7225 24.0242 25.6722C23.9014 25.6219 23.7698 25.5964 23.637 25.597H18.505V25.209H26.124C26.2769 25.209 26.4282 25.1789 26.5695 25.1204C26.7107 25.0619 26.839 24.9762 26.9471 24.8681C27.0552 24.76 27.1409 24.6317 27.1994 24.4905C27.2579 24.3492 27.288 24.1979 27.288 24.045C27.288 23.8922 27.2579 23.7408 27.1994 23.5996C27.1409 23.4584 27.0552 23.3301 26.9471 23.222C26.839 23.1139 26.7107 23.0281 26.5695 22.9696C26.4282 22.9111 26.2769 22.881 26.124 22.881H19.21V22.492H28.084C28.2502 22.4919 28.4147 22.4582 28.5676 22.3931C28.7206 22.3279 28.8588 22.2326 28.9741 22.1129C29.0893 21.9931 29.1793 21.8514 29.2386 21.6961C29.2978 21.5408 29.3252 21.3751 29.319 21.209C29.3023 20.8857 29.1614 20.5814 28.9257 20.3595C28.69 20.1376 28.3777 20.0153 28.054 20.018V20.021Z" fill="#FFBEAA"/>
<path d="M32.614 14.618C32.6158 14.0743 32.4329 13.5461 32.0953 13.1199C31.7576 12.6937 31.2853 12.3948 30.7556 12.2721C30.2259 12.1494 29.6702 12.2102 29.1796 12.4446C28.689 12.6789 28.2925 13.0729 28.055 13.562C27.2573 13.2738 26.3886 13.2472 25.5748 13.4862C24.761 13.7252 24.0446 14.2172 23.5294 14.891C23.0142 15.5647 22.7272 16.3851 22.7098 17.2331C22.6925 18.081 22.9459 18.9125 23.4331 19.6067C23.9203 20.3009 24.6161 20.8218 25.4194 21.0938C26.2228 21.3658 27.0919 21.3747 27.9007 21.1193C28.7094 20.8639 29.4158 20.3573 29.9172 19.6733C30.4185 18.9892 30.6889 18.1632 30.689 17.315C30.689 17.2004 30.6844 17.087 30.675 16.975C31.2215 16.8681 31.7137 16.5745 32.0675 16.1445C32.4212 15.7145 32.6144 15.1748 32.614 14.618V14.618Z" fill="#E9EDF5"/>
<path d="M24.906 11.419C26.1188 11.419 27.102 10.4358 27.102 9.22302C27.102 8.01021 26.1188 7.02702 24.906 7.02702C23.6932 7.02702 22.71 8.01021 22.71 9.22302C22.71 10.4358 23.6932 11.419 24.906 11.419Z" fill="#E9EDF5"/>
<path d="M15.701 7.02603C16.6808 7.02603 17.475 6.23178 17.475 5.25203C17.475 4.27227 16.6808 3.47803 15.701 3.47803C14.7212 3.47803 13.927 4.27227 13.927 5.25203C13.927 6.23178 14.7212 7.02603 15.701 7.02603Z" fill="white"/>
<path d="M15.701 3.47803C16.1716 3.47803 16.623 3.66499 16.9558 3.99777C17.2885 4.33055 17.4755 4.7819 17.4755 5.25253C17.4755 5.72316 17.2885 6.17451 16.9558 6.50729C16.623 6.84007 16.1716 7.02703 15.701 7.02703V3.47803Z" fill="#E9EDF5"/>
<path d="M9.642 9.37003C10.0441 9.37003 10.37 9.0441 10.37 8.64203C10.37 8.23997 10.0441 7.91403 9.642 7.91403C9.23994 7.91403 8.914 8.23997 8.914 8.64203C8.914 9.0441 9.23994 9.37003 9.642 9.37003Z" fill="white"/>
</svg>
