<svg width="108" height="120" viewBox="0 0 108 120" fill="none" xmlns="http://www.w3.org/2000/svg">
<path d="M95 119.5H12.4726C9.99129 119.5 7.9726 117.481 7.9726 115V114.983L7.97145 114.966L0.500031 4.98355C0.508875 2.50973 2.52414 0.5 5 0.5H95C97.4813 0.5 99.5 2.51869 99.5 5V115C99.5 117.481 97.4813 119.5 95 119.5Z" fill="white" fill-opacity="0.2"/>
<path d="M5 1C2.80504 1 1.01732 2.77695 1.00013 4.96794L8.4703 114.932L8.4726 114.966V115C8.4726 117.206 10.267 119 12.4726 119H95C97.2056 119 99 117.206 99 115V5C99 2.7944 97.2056 1 95 1H5ZM5 0H95C97.7614 0 100 2.23859 100 5V115C100 117.761 97.7614 120 95 120H12.4726C9.71117 120 7.4726 117.761 7.4726 115L0 5C0 2.23859 2.23859 0 5 0Z" fill="#DDDDDD"/>
<path d="M10.646 13.27V23H9.05V13.27H10.646ZM20.7354 23H19.1394L14.3374 15.734V23H12.7414V13.256H14.3374L19.1394 20.508V13.256H20.7354V23ZM28.5573 13.27V14.572H24.4273V17.442H27.6473V18.744H24.4273V23H22.8313V13.27H28.5573ZM34.4743 23.098C33.569 23.098 32.7337 22.888 31.9683 22.468C31.2123 22.0387 30.6103 21.446 30.1623 20.69C29.7237 19.9247 29.5043 19.066 29.5043 18.114C29.5043 17.162 29.7237 16.308 30.1623 15.552C30.6103 14.796 31.2123 14.208 31.9683 13.788C32.7337 13.3587 33.569 13.144 34.4743 13.144C35.389 13.144 36.2243 13.3587 36.9803 13.788C37.7457 14.208 38.3477 14.796 38.7863 15.552C39.225 16.308 39.4443 17.162 39.4443 18.114C39.4443 19.066 39.225 19.9247 38.7863 20.69C38.3477 21.446 37.7457 22.0387 36.9803 22.468C36.2243 22.888 35.389 23.098 34.4743 23.098ZM34.4743 21.712C35.1183 21.712 35.6923 21.5673 36.1963 21.278C36.7003 20.9793 37.0923 20.5593 37.3723 20.018C37.6617 19.4673 37.8063 18.8327 37.8063 18.114C37.8063 17.3953 37.6617 16.7653 37.3723 16.224C37.0923 15.6827 36.7003 15.2673 36.1963 14.978C35.6923 14.6887 35.1183 14.544 34.4743 14.544C33.8303 14.544 33.2563 14.6887 32.7523 14.978C32.2483 15.2673 31.8517 15.6827 31.5623 16.224C31.2823 16.7653 31.1423 17.3953 31.1423 18.114C31.1423 18.8327 31.2823 19.4673 31.5623 20.018C31.8517 20.5593 32.2483 20.9793 32.7523 21.278C33.2563 21.5673 33.8303 21.712 34.4743 21.712Z" fill="#FFAD31"/>
<path d="M56.166 120C51.7149 116.155 48.1453 111.395 45.7006 106.046C43.2559 100.696 41.9937 94.8819 42 89C42 78.1261 46.3196 67.6976 54.0086 60.0086C61.6976 52.3196 72.1261 48 83 48C88.8651 47.9916 94.6632 49.2464 100 51.679V115C100 116.326 99.4732 117.598 98.5355 118.536C97.5979 119.473 96.3261 120 95 120H56.166Z" fill="#FFAD31"/>
<path d="M15.854 31.168C15.854 31.6627 15.7373 32.1293 15.504 32.568C15.2707 33.0067 14.8973 33.366 14.384 33.646C13.8707 33.9167 13.2127 34.052 12.41 34.052H10.646V38H9.05V28.27H12.41C13.1567 28.27 13.7867 28.4007 14.3 28.662C14.8227 28.914 15.21 29.2593 15.462 29.698C15.7233 30.1367 15.854 30.6267 15.854 31.168ZM12.41 32.75C13.0167 32.75 13.4693 32.6147 13.768 32.344C14.0667 32.064 14.216 31.672 14.216 31.168C14.216 30.104 13.614 29.572 12.41 29.572H10.646V32.75H12.41ZM18.9722 29.558V32.414H22.3322V33.716H18.9722V36.698H22.7522V38H17.3762V28.256H22.7522V29.558H18.9722ZM32.712 38H31.116L26.314 30.734V38H24.718V28.256H26.314L31.116 35.508V28.256H32.712V38ZM42.0178 28.27L38.7978 34.472V38H37.2018V34.472L33.9678 28.27H35.7458L37.9998 33.044L40.2538 28.27H42.0178ZM44.8804 29.558V32.414H48.2404V33.716H44.8804V36.698H48.6604V38H43.2844V28.256H48.6604V29.558H44.8804ZM55.8342 33.002C56.3568 33.0953 56.8002 33.3707 57.1642 33.828C57.5282 34.2853 57.7102 34.8033 57.7102 35.382C57.7102 35.8767 57.5795 36.3247 57.3182 36.726C57.0662 37.118 56.6975 37.4307 56.2122 37.664C55.7268 37.888 55.1622 38 54.5182 38H50.6262V28.27H54.3362C54.9988 28.27 55.5682 28.382 56.0442 28.606C56.5202 28.83 56.8795 29.1333 57.1222 29.516C57.3648 29.8893 57.4862 30.3093 57.4862 30.776C57.4862 31.336 57.3368 31.8027 57.0382 32.176C56.7395 32.5493 56.3382 32.8247 55.8342 33.002ZM52.2222 32.358H54.1962C54.7188 32.358 55.1248 32.2413 55.4142 32.008C55.7128 31.7653 55.8622 31.42 55.8622 30.972C55.8622 30.5333 55.7128 30.1927 55.4142 29.95C55.1248 29.698 54.7188 29.572 54.1962 29.572H52.2222V32.358ZM54.3782 36.698C54.9195 36.698 55.3442 36.5673 55.6522 36.306C55.9602 36.0447 56.1142 35.6807 56.1142 35.214C56.1142 34.738 55.9508 34.36 55.6242 34.08C55.2975 33.8 54.8635 33.66 54.3222 33.66H52.2222V36.698H54.3782ZM65.3105 36.012H61.2365L60.5365 38H58.8705L62.3565 28.256H64.2045L67.6905 38H66.0105L65.3105 36.012ZM64.8625 34.71L63.2805 30.188L61.6845 34.71H64.8625ZM74.2603 38L72.0203 34.108H70.8023V38H69.2063V28.27H72.5663C73.3129 28.27 73.9429 28.4007 74.4563 28.662C74.9789 28.9233 75.3663 29.2733 75.6183 29.712C75.8796 30.1507 76.0103 30.6407 76.0103 31.182C76.0103 31.8167 75.8236 32.3953 75.4503 32.918C75.0863 33.4313 74.5216 33.7813 73.7563 33.968L76.1643 38H74.2603ZM70.8023 32.834H72.5663C73.1636 32.834 73.6116 32.6847 73.9103 32.386C74.2183 32.0873 74.3723 31.686 74.3723 31.182C74.3723 30.678 74.2229 30.286 73.9243 30.006C73.6256 29.7167 73.1729 29.572 72.5663 29.572H70.8023V32.834ZM83.918 36.012H79.844L79.144 38H77.478L80.964 28.256H82.812L86.298 38H84.618L83.918 36.012ZM83.47 34.71L81.888 30.188L80.292 34.71H83.47ZM95.8077 38H94.2117L89.4097 30.734V38H87.8137V28.256H89.4097L94.2117 35.508V28.256H95.8077V38Z" fill="#FFAD31"/>
<path d="M105.08 87.305C104.459 87.3076 103.856 87.5158 103.366 87.8972C102.876 88.2786 102.525 88.8116 102.37 89.413H100.87V90.818H102.37C102.502 91.3255 102.774 91.7858 103.155 92.1465C103.536 92.5072 104.01 92.7539 104.524 92.8586C105.038 92.9632 105.571 92.9217 106.063 92.7387C106.554 92.5557 106.985 92.2386 107.305 91.8233C107.626 91.408 107.823 90.9112 107.875 90.3893C107.927 89.8674 107.832 89.3413 107.601 88.8707C107.369 88.4002 107.01 88.0041 106.564 87.7273C106.119 87.4505 105.605 87.3042 105.08 87.305V87.305ZM105.08 91.52C104.802 91.52 104.53 91.4376 104.299 91.2832C104.068 91.1288 103.888 90.9094 103.782 90.6527C103.676 90.3959 103.648 90.1134 103.702 89.8409C103.756 89.5684 103.89 89.318 104.087 89.1215C104.283 88.925 104.533 88.7912 104.806 88.737C105.078 88.6828 105.361 88.7106 105.618 88.817C105.874 88.9233 106.094 89.1034 106.248 89.3344C106.403 89.5655 106.485 89.8371 106.485 90.115C106.486 90.2997 106.45 90.4827 106.379 90.6535C106.309 90.8242 106.206 90.9794 106.075 91.11C105.944 91.2406 105.789 91.344 105.618 91.4144C105.448 91.4848 105.265 91.5207 105.08 91.52V91.52Z" fill="white" fill-opacity="0.9"/>
<path d="M81.896 74.659C82.3098 74.6565 82.7177 74.5615 83.09 74.381L84.433 75.994C84.1984 76.3662 84.0553 76.7887 84.0155 77.2268C83.9756 77.665 84.0402 78.1063 84.2038 78.5148C84.3674 78.9232 84.6254 79.287 84.9568 79.5764C85.2881 79.8659 85.6833 80.0727 86.11 80.18V81.68H87.515V80.18C87.9418 80.0729 88.3371 79.8661 88.6685 79.5767C89 79.2873 89.2582 78.9235 89.4219 78.5151C89.5856 78.1066 89.6502 77.6652 89.6104 77.227C89.5707 76.7888 89.4276 76.3663 89.193 75.994L90.536 74.381C90.9083 74.5615 91.3163 74.6565 91.73 74.659C92.3658 74.6635 92.9845 74.4537 93.4864 74.0634C93.9883 73.6731 94.3441 73.1252 94.4965 72.5079C94.6488 71.8907 94.5888 71.2401 94.3261 70.6612C94.0634 70.0822 93.6133 69.6086 93.0485 69.3167C92.4837 69.0249 91.837 68.9318 91.2128 69.0525C90.5886 69.1732 90.0232 69.5007 89.6079 69.982C89.1926 70.4634 88.9515 71.0707 88.9236 71.7058C88.8957 72.341 89.0825 72.967 89.454 73.483L88.17 75.024C87.7575 74.7851 87.2892 74.6593 86.8125 74.6593C86.3358 74.6593 85.8675 74.7851 85.455 75.024L84.174 73.483C84.5382 72.9715 84.7199 72.3523 84.6899 71.7251C84.6599 71.0979 84.4199 70.4989 84.0084 70.0245C83.597 69.5501 83.0381 69.2278 82.4214 69.1093C81.8047 68.9908 81.1661 69.0831 80.6082 69.3712C80.0503 69.6594 79.6054 70.1267 79.3451 70.6981C79.0847 71.2696 79.024 71.9119 79.1727 72.522C79.3214 73.1321 79.6709 73.6745 80.165 74.0621C80.659 74.4497 81.2691 74.6599 81.897 74.659H81.896ZM91.732 70.444C92.0099 70.444 92.2815 70.5264 92.5126 70.6808C92.7436 70.8352 92.9237 71.0546 93.0301 71.3113C93.1364 71.5681 93.1642 71.8506 93.11 72.1231C93.0558 72.3956 92.922 72.646 92.7255 72.8425C92.529 73.039 92.2786 73.1728 92.0061 73.227C91.7336 73.2812 91.4511 73.2534 91.1943 73.1471C90.9376 73.0407 90.7182 72.8606 90.5638 72.6296C90.4094 72.3985 90.327 72.1269 90.327 71.849C90.3262 71.6642 90.362 71.4811 90.4323 71.3102C90.5026 71.1394 90.6061 70.9841 90.7367 70.8534C90.8673 70.7227 91.0225 70.6191 91.1933 70.5487C91.3642 70.4783 91.5472 70.4423 91.732 70.443V70.444ZM86.814 76.064C87.0919 76.064 87.3635 76.1464 87.5946 76.3008C87.8256 76.4552 88.0057 76.6746 88.1121 76.9313C88.2184 77.1881 88.2462 77.4706 88.192 77.7431C88.1378 78.0156 88.004 78.266 87.8075 78.4625C87.611 78.659 87.3606 78.7928 87.0881 78.847C86.8156 78.9012 86.5331 78.8734 86.2763 78.7671C86.0196 78.6607 85.8002 78.4806 85.6458 78.2496C85.4914 78.0185 85.409 77.7469 85.409 77.469C85.4084 77.2843 85.4442 77.1013 85.5146 76.9306C85.585 76.7598 85.6884 76.6046 85.819 76.474C85.9496 76.3434 86.1048 76.24 86.2756 76.1696C86.4463 76.0992 86.6293 76.0633 86.814 76.064V76.064ZM81.896 70.444C82.1739 70.444 82.4455 70.5264 82.6766 70.6808C82.9076 70.8352 83.0877 71.0546 83.1941 71.3113C83.3004 71.5681 83.3282 71.8506 83.274 72.1231C83.2198 72.3956 83.086 72.646 82.8895 72.8425C82.693 73.039 82.4426 73.1728 82.1701 73.227C81.8976 73.2812 81.6151 73.2534 81.3583 73.1471C81.1016 73.0407 80.8822 72.8606 80.7278 72.6296C80.5734 72.3985 80.491 72.1269 80.491 71.849C80.4902 71.6642 80.526 71.4811 80.5963 71.3102C80.6666 71.1394 80.7701 70.9841 80.9007 70.8534C81.0313 70.7227 81.1865 70.6191 81.3573 70.5487C81.5282 70.4783 81.7112 70.4423 81.896 70.443V70.444Z" fill="white" fill-opacity="0.9"/>
<path d="M92.64 83.295L93.633 84.288L96.633 81.288C97.0612 81.5469 97.5516 81.6852 98.052 81.688C98.6078 81.688 99.1511 81.5232 99.6132 81.2144C100.075 80.9057 100.435 80.4668 100.648 79.9533C100.861 79.4399 100.916 78.8749 100.808 78.3298C100.7 77.7847 100.432 77.284 100.039 76.891C99.646 76.498 99.1453 76.2304 98.6002 76.122C98.0551 76.0136 97.4901 76.0692 96.9767 76.2819C96.4632 76.4946 96.0243 76.8547 95.7156 77.3168C95.4068 77.779 95.242 78.3222 95.242 78.878C95.2451 79.3781 95.3833 79.868 95.642 80.296L92.64 83.295ZM98.055 77.469C98.3329 77.469 98.6045 77.5514 98.8356 77.7058C99.0666 77.8602 99.2467 78.0796 99.3531 78.3363C99.4594 78.5931 99.4872 78.8756 99.433 79.1481C99.3788 79.4206 99.245 79.671 99.0485 79.8675C98.852 80.064 98.6016 80.1978 98.3291 80.252C98.0566 80.3062 97.7741 80.2784 97.5173 80.1721C97.2606 80.0657 97.0412 79.8856 96.8868 79.6546C96.7324 79.4235 96.65 79.1519 96.65 78.874C96.6492 78.6892 96.685 78.5061 96.7553 78.3352C96.8256 78.1644 96.9291 78.0091 97.0597 77.8784C97.1903 77.7477 97.3455 77.6441 97.5163 77.5737C97.6872 77.5033 97.8702 77.4673 98.055 77.468V77.469Z" fill="white" fill-opacity="0.9"/>
<path d="M100.369 75.568L101.192 74.745L102.185 75.738L101.362 76.561L100.369 75.568Z" fill="white" fill-opacity="0.9"/>
<path d="M103.178 74.743L103.661 74.26C104.089 74.5189 104.58 74.6571 105.08 74.66C105.636 74.66 106.179 74.4952 106.641 74.1864C107.103 73.8777 107.463 73.4388 107.676 72.9253C107.889 72.4119 107.944 71.8469 107.836 71.3018C107.728 70.7567 107.46 70.256 107.067 69.863C106.674 69.47 106.173 69.2024 105.628 69.094C105.083 68.9856 104.518 69.0412 104.005 69.2539C103.491 69.4666 103.052 69.8267 102.744 70.2888C102.435 70.751 102.27 71.2942 102.27 71.85C102.273 72.3501 102.411 72.84 102.67 73.268L102.187 73.751L103.178 74.743ZM105.078 70.443C105.356 70.443 105.628 70.5254 105.859 70.6798C106.09 70.8342 106.27 71.0536 106.376 71.3103C106.482 71.5671 106.51 71.8496 106.456 72.1221C106.402 72.3946 106.268 72.645 106.072 72.8415C105.875 73.038 105.625 73.1718 105.352 73.226C105.08 73.2802 104.797 73.2524 104.54 73.1461C104.284 73.0397 104.064 72.8596 103.91 72.6286C103.755 72.3975 103.673 72.1259 103.673 71.848C103.672 71.6631 103.708 71.48 103.779 71.3091C103.849 71.1382 103.953 70.983 104.084 70.8523C104.215 70.7217 104.37 70.6183 104.541 70.548C104.712 70.4778 104.895 70.4421 105.08 70.443H105.078Z" fill="white" fill-opacity="0.9"/>
<path d="M75.573 81.684C76.0731 81.681 76.5631 81.5428 76.991 81.284L79.991 84.284L80.984 83.291L77.984 80.291C78.2428 79.8631 78.381 79.3731 78.384 78.873C78.384 78.3172 78.2192 77.774 77.9104 77.3119C77.6017 76.8497 77.1628 76.4896 76.6493 76.2769C76.1359 76.0642 75.5709 76.0086 75.0258 76.117C74.4807 76.2254 73.98 76.493 73.587 76.886C73.1941 77.279 72.9264 77.7797 72.818 78.3248C72.7096 78.8699 72.7652 79.4349 72.9779 79.9483C73.1906 80.4618 73.5508 80.9007 74.0129 81.2094C74.475 81.5182 75.0182 81.683 75.574 81.683L75.573 81.684ZM75.573 77.469C75.8509 77.469 76.1225 77.5514 76.3536 77.7058C76.5846 77.8602 76.7647 78.0796 76.8711 78.3363C76.9774 78.5931 77.0052 78.8756 76.951 79.1481C76.8968 79.4206 76.763 79.671 76.5665 79.8675C76.37 80.064 76.1197 80.1978 75.8471 80.252C75.5746 80.3062 75.2921 80.2784 75.0353 80.1721C74.7786 80.0657 74.5592 79.8856 74.4048 79.6546C74.2504 79.4235 74.168 79.1519 74.168 78.874C74.1673 78.6893 74.2032 78.5063 74.2736 78.3355C74.344 78.1648 74.4475 78.0096 74.5781 77.879C74.7086 77.7484 74.8638 77.645 75.0346 77.5746C75.2053 77.5042 75.3883 77.4683 75.573 77.469V77.469Z" fill="white" fill-opacity="0.9"/>
<path d="M68.548 74.658C69.0481 74.655 69.5381 74.5168 69.966 74.258L70.449 74.741L71.442 73.748L70.959 73.265C71.2178 72.8371 71.356 72.3471 71.359 71.847C71.3588 71.2913 71.1939 70.7482 70.885 70.2862C70.5762 69.8243 70.1373 69.4643 69.6239 69.2517C69.1105 69.0392 68.5456 68.9836 68.0006 69.092C67.4556 69.2005 66.955 69.4681 66.562 69.861C66.1691 70.254 65.9015 70.7546 65.7931 71.2996C65.6846 71.8445 65.7402 72.4095 65.9527 72.9229C66.1653 73.4363 66.5253 73.8752 66.9872 74.184C67.4492 74.4929 67.9923 74.6578 68.548 74.658V74.658ZM68.548 70.443C68.8259 70.443 69.0975 70.5254 69.3286 70.6798C69.5596 70.8342 69.7397 71.0536 69.8461 71.3103C69.9524 71.5671 69.9802 71.8496 69.926 72.1221C69.8718 72.3946 69.738 72.645 69.5415 72.8415C69.345 73.038 69.0947 73.1718 68.8221 73.226C68.5496 73.2802 68.2671 73.2524 68.0103 73.1461C67.7536 73.0397 67.5342 72.8596 67.3798 72.6286C67.2254 72.3975 67.143 72.1259 67.143 71.848C67.1424 71.6633 67.1782 71.4803 67.2486 71.3096C67.319 71.1388 67.4225 70.9836 67.5531 70.853C67.6837 70.7224 67.8388 70.619 68.0096 70.5486C68.1803 70.4782 68.3633 70.4423 68.548 70.443V70.443Z" fill="white" fill-opacity="0.9"/>
<path d="M71.441 75.742L72.441 74.742L73.264 75.565L72.27 76.558L71.441 75.742Z" fill="white" fill-opacity="0.9"/>
<path d="M98.055 98.545C97.5549 98.5482 97.065 98.6864 96.637 98.945L93.637 95.945L92.644 96.938L95.644 99.938C95.3854 100.366 95.2472 100.856 95.244 101.356C95.244 101.912 95.4088 102.455 95.7176 102.917C96.0263 103.379 96.4652 103.739 96.9787 103.952C97.4921 104.165 98.0571 104.22 98.6022 104.112C99.1473 104.004 99.648 103.736 100.041 103.343C100.434 102.95 100.702 102.449 100.81 101.904C100.918 101.359 100.863 100.794 100.65 100.281C100.437 99.7672 100.077 99.3283 99.6151 99.0196C99.153 98.7108 98.6098 98.546 98.054 98.546L98.055 98.545ZM98.055 102.76C97.7771 102.76 97.5055 102.678 97.2744 102.523C97.0434 102.369 96.8633 102.149 96.757 101.893C96.6506 101.636 96.6228 101.353 96.677 101.081C96.7312 100.808 96.865 100.558 97.0615 100.362C97.258 100.165 97.5084 100.031 97.7809 99.977C98.0535 99.9228 98.336 99.9506 98.5927 100.057C98.8494 100.163 99.0688 100.343 99.2232 100.574C99.3776 100.805 99.46 101.077 99.46 101.355C99.4607 101.54 99.4248 101.723 99.3544 101.893C99.284 102.064 99.1806 102.219 99.05 102.35C98.9194 102.481 98.7642 102.584 98.5934 102.654C98.4227 102.725 98.2397 102.761 98.055 102.76Z" fill="white" fill-opacity="0.9"/>
<path d="M105.081 105.571C104.581 105.574 104.091 105.712 103.663 105.971L103.18 105.488L102.187 106.481L102.67 106.964C102.411 107.392 102.273 107.882 102.27 108.382C102.27 108.938 102.435 109.481 102.744 109.943C103.052 110.405 103.491 110.765 104.005 110.978C104.518 111.191 105.083 111.246 105.628 111.138C106.173 111.03 106.674 110.762 107.067 110.369C107.46 109.976 107.728 109.475 107.836 108.93C107.944 108.385 107.889 107.82 107.676 107.307C107.463 106.793 107.103 106.354 106.641 106.046C106.179 105.737 105.636 105.572 105.08 105.572L105.081 105.571ZM105.081 109.786C104.803 109.786 104.531 109.704 104.3 109.549C104.069 109.395 103.889 109.175 103.783 108.919C103.677 108.662 103.649 108.379 103.703 108.107C103.757 107.834 103.891 107.584 104.088 107.388C104.284 107.191 104.534 107.057 104.807 107.003C105.079 106.949 105.362 106.977 105.619 107.083C105.875 107.189 106.095 107.369 106.249 107.6C106.404 107.831 106.486 108.103 106.486 108.381C106.487 108.566 106.451 108.749 106.38 108.919C106.31 109.09 106.207 109.245 106.076 109.376C105.945 109.507 105.79 109.61 105.619 109.68C105.449 109.751 105.266 109.787 105.081 109.786V109.786Z" fill="white" fill-opacity="0.9"/>
<path d="M91.733 105.571C91.3191 105.575 90.9111 105.671 90.539 105.852L89.196 104.236C89.4306 103.864 89.5737 103.441 89.6134 103.003C89.6532 102.565 89.5886 102.123 89.4249 101.715C89.2612 101.307 89.003 100.943 88.6715 100.653C88.3401 100.364 87.9448 100.157 87.518 100.05V98.55H86.113V100.05C85.6863 100.157 85.2911 100.364 84.9598 100.654C84.6284 100.943 84.3704 101.307 84.2068 101.715C84.0432 102.124 83.9786 102.565 84.0185 103.003C84.0583 103.441 84.2014 103.864 84.436 104.236L83.093 105.852C82.7209 105.671 82.313 105.575 81.899 105.571C81.2633 105.567 80.6447 105.777 80.1429 106.167C79.6412 106.558 79.2855 107.106 79.1334 107.723C78.9812 108.34 79.0414 108.991 79.3042 109.569C79.567 110.148 80.0171 110.622 80.582 110.913C81.1468 111.205 81.7934 111.298 82.4176 111.177C83.0417 111.057 83.607 110.729 84.0223 110.248C84.4375 109.766 84.6785 109.159 84.7064 108.524C84.7343 107.889 84.5475 107.263 84.176 106.747L85.46 105.206C85.8725 105.445 86.3408 105.571 86.8175 105.571C87.2943 105.571 87.7625 105.445 88.175 105.206L89.459 106.747C89.0948 107.259 88.9131 107.878 88.9431 108.505C88.9732 109.132 89.2132 109.731 89.6246 110.205C90.036 110.68 90.5949 111.002 91.2116 111.121C91.8283 111.239 92.4669 111.147 93.0248 110.859C93.5827 110.571 94.0276 110.103 94.288 109.532C94.5483 108.96 94.609 108.318 94.4603 107.708C94.3116 107.098 93.9621 106.555 93.4681 106.168C92.974 105.78 92.364 105.57 91.736 105.571H91.733ZM81.897 109.786C81.6191 109.786 81.3475 109.704 81.1164 109.549C80.8854 109.395 80.7053 109.175 80.599 108.919C80.4926 108.662 80.4648 108.379 80.519 108.107C80.5732 107.834 80.707 107.584 80.9035 107.388C81.1 107.191 81.3504 107.057 81.6229 107.003C81.8954 106.949 82.178 106.977 82.4347 107.083C82.6914 107.189 82.9108 107.369 83.0652 107.6C83.2196 107.831 83.302 108.103 83.302 108.381C83.3027 108.566 83.2668 108.749 83.1964 108.919C83.126 109.09 83.0226 109.245 82.892 109.376C82.7614 109.507 82.6062 109.61 82.4355 109.68C82.2647 109.751 82.0817 109.787 81.897 109.786V109.786ZM86.815 104.166C86.5371 104.166 86.2655 104.084 86.0344 103.929C85.8034 103.775 85.6233 103.555 85.517 103.299C85.4106 103.042 85.3828 102.759 85.437 102.487C85.4912 102.214 85.625 101.964 85.8215 101.768C86.018 101.571 86.2684 101.437 86.5409 101.383C86.8134 101.329 87.096 101.357 87.3527 101.463C87.6094 101.569 87.8288 101.749 87.9832 101.98C88.1376 102.211 88.22 102.483 88.22 102.761C88.2207 102.946 88.1848 103.129 88.1144 103.299C88.044 103.47 87.9406 103.625 87.81 103.756C87.6794 103.887 87.5242 103.99 87.3535 104.06C87.1827 104.131 86.9997 104.167 86.815 104.166ZM91.733 109.786C91.4551 109.786 91.1835 109.704 90.9524 109.549C90.7214 109.395 90.5413 109.175 90.435 108.919C90.3286 108.662 90.3008 108.379 90.355 108.107C90.4092 107.834 90.543 107.584 90.7395 107.388C90.936 107.191 91.1864 107.057 91.4589 107.003C91.7314 106.949 92.014 106.977 92.2707 107.083C92.5274 107.189 92.7468 107.369 92.9012 107.6C93.0556 107.831 93.138 108.103 93.138 108.381C93.1387 108.566 93.1028 108.749 93.0324 108.919C92.962 109.09 92.8586 109.245 92.728 109.376C92.5974 109.507 92.4422 109.61 92.2715 109.68C92.1007 109.751 91.9177 109.787 91.733 109.786V109.786Z" fill="white" fill-opacity="0.9"/>
<path d="M100.369 104.663L101.362 103.67L102.185 104.493L101.192 105.487L100.369 104.663Z" fill="white" fill-opacity="0.9"/>
<path d="M70.45 105.486L69.967 105.969C69.539 105.71 69.0491 105.572 68.549 105.569C67.9932 105.569 67.45 105.734 66.9879 106.043C66.5258 106.351 66.1656 106.79 65.9529 107.304C65.7402 107.817 65.6846 108.382 65.793 108.927C65.9014 109.472 66.1691 109.973 66.562 110.366C66.955 110.759 67.4557 111.027 68.0008 111.135C68.5459 111.243 69.1109 111.188 69.6244 110.975C70.1378 110.762 70.5767 110.402 70.8854 109.94C71.1942 109.478 71.359 108.935 71.359 108.379C71.356 107.879 71.2178 107.389 70.959 106.961L71.442 106.478L70.45 105.486ZM68.55 109.786C68.2721 109.786 68.0005 109.704 67.7694 109.549C67.5384 109.395 67.3583 109.175 67.252 108.919C67.1456 108.662 67.1178 108.379 67.172 108.107C67.2262 107.834 67.36 107.584 67.5565 107.388C67.753 107.191 68.0034 107.057 68.2759 107.003C68.5485 106.949 68.831 106.977 69.0877 107.083C69.3444 107.189 69.5638 107.369 69.7182 107.6C69.8726 107.831 69.955 108.103 69.955 108.381C69.9557 108.566 69.9197 108.749 69.8492 108.92C69.7787 109.091 69.6751 109.246 69.5443 109.377C69.4135 109.507 69.2581 109.611 69.0871 109.681C68.9161 109.751 68.7329 109.787 68.548 109.786H68.55Z" fill="white" fill-opacity="0.9"/>
<path d="M80.988 96.934L79.995 95.941L76.995 98.941C76.567 98.6823 76.0771 98.5441 75.577 98.541C75.0213 98.541 74.478 98.7058 74.0159 99.0146C73.5538 99.3233 73.1936 99.7622 72.9809 100.276C72.7682 100.789 72.7126 101.354 72.821 101.899C72.9294 102.444 73.1971 102.945 73.59 103.338C73.983 103.731 74.4837 103.999 75.0288 104.107C75.5739 104.215 76.1389 104.16 76.6524 103.947C77.1658 103.734 77.6047 103.374 77.9134 102.912C78.2222 102.45 78.387 101.907 78.387 101.351C78.384 100.851 78.2458 100.361 77.987 99.933L80.988 96.934ZM75.573 102.76C75.2951 102.76 75.0235 102.678 74.7924 102.523C74.5614 102.369 74.3813 102.149 74.275 101.893C74.1686 101.636 74.1408 101.353 74.195 101.081C74.2492 100.808 74.383 100.558 74.5795 100.362C74.776 100.165 75.0264 100.031 75.2989 99.977C75.5715 99.9228 75.854 99.9506 76.1107 100.057C76.3674 100.163 76.5869 100.343 76.7412 100.574C76.8956 100.805 76.978 101.077 76.978 101.355C76.978 101.728 76.83 102.085 76.5665 102.348C76.303 102.612 75.9456 102.76 75.573 102.76V102.76Z" fill="white" fill-opacity="0.9"/>
<path d="M71.441 104.495L72.264 103.672L73.258 104.665L72.435 105.488L71.441 104.495Z" fill="white" fill-opacity="0.9"/>
<path d="M95.245 89.412H96.65V90.817H95.245V89.412Z" fill="white" fill-opacity="0.9"/>
<path d="M98.055 89.412H99.46V90.817H98.055V89.412Z" fill="white" fill-opacity="0.9"/>
<path d="M68.547 92.925C69.1684 92.9228 69.7715 92.7147 70.262 92.3333C70.7525 91.9519 71.1028 91.4187 71.258 90.817H72.758V89.412H71.258C71.1256 88.9045 70.8536 88.4443 70.4729 88.0836C70.0921 87.7229 69.6179 87.4762 69.104 87.3715C68.5901 87.2668 68.0571 87.3082 67.5655 87.4911C67.074 87.674 66.6436 87.9911 66.3232 88.4063C66.0028 88.8215 65.8052 89.3182 65.7528 89.8401C65.7005 90.3619 65.7955 90.888 66.0271 91.3586C66.2587 91.8291 66.6176 92.2254 67.063 92.5022C67.5084 92.7791 68.0225 92.9256 68.547 92.925V92.925ZM68.547 88.71C68.8249 88.71 69.0965 88.7924 69.3276 88.9468C69.5586 89.1012 69.7387 89.3206 69.8451 89.5773C69.9514 89.8341 69.9792 90.1166 69.925 90.3891C69.8708 90.6616 69.737 90.912 69.5405 91.1085C69.344 91.305 69.0937 91.4388 68.8211 91.493C68.5486 91.5472 68.2661 91.5194 68.0093 91.413C67.7526 91.3067 67.5332 91.1266 67.3788 90.8956C67.2244 90.6645 67.142 90.3929 67.142 90.115C67.1412 89.9302 67.177 89.7471 67.2473 89.5762C67.3176 89.4054 67.4211 89.2501 67.5517 89.1194C67.6823 88.9887 67.8375 88.8851 68.0083 88.8147C68.1792 88.7443 68.3622 88.7083 68.547 88.709V88.71Z" fill="white" fill-opacity="0.9"/>
<path d="M76.979 89.412H78.384V90.817H76.979V89.412Z" fill="white" fill-opacity="0.9"/>
<path d="M74.169 89.412H75.574V90.817H74.169V89.412Z" fill="white" fill-opacity="0.9"/>
<path d="M86.815 83.089C85.4254 83.089 84.067 83.5011 82.9116 84.2731C81.7561 85.0451 80.8556 86.1424 80.3238 87.4263C79.7921 88.7101 79.6529 90.1228 79.924 91.4857C80.1951 92.8486 80.8643 94.1005 81.8469 95.0831C82.8295 96.0657 84.0814 96.7349 85.4443 97.006C86.8072 97.2771 88.2199 97.138 89.5037 96.6062C90.7876 96.0744 91.8849 95.1739 92.6569 94.0184C93.4289 92.863 93.841 91.5046 93.841 90.115C93.841 88.2516 93.1008 86.4645 91.7831 85.1469C90.4655 83.8292 88.6784 83.089 86.815 83.089V83.089ZM83.302 94.495V94.446C83.735 93.2048 84.4418 92.0769 85.37 91.146L85.396 91.119C85.8233 91.3796 86.314 91.5175 86.8145 91.5175C87.315 91.5175 87.8057 91.3796 88.233 91.119L88.26 91.146C89.1883 92.0768 89.8951 93.2047 90.328 94.446V94.495C89.3327 95.2968 88.0931 95.7339 86.815 95.7339C85.5369 95.7339 84.2973 95.2968 83.302 94.495V94.495ZM86.815 90.114C86.5371 90.114 86.2655 90.0316 86.0344 89.8772C85.8034 89.7228 85.6233 89.5034 85.5169 89.2467C85.4106 88.9899 85.3828 88.7074 85.437 88.4349C85.4912 88.1624 85.625 87.912 85.8215 87.7155C86.018 87.519 86.2684 87.3852 86.5409 87.331C86.8134 87.2768 87.0959 87.3046 87.3527 87.411C87.6094 87.5173 87.8288 87.6974 87.9832 87.9284C88.1376 88.1595 88.22 88.4311 88.22 88.709C88.2208 88.8938 88.185 89.0769 88.1147 89.2478C88.0444 89.4186 87.9409 89.5739 87.8103 89.7046C87.6797 89.8353 87.5245 89.9389 87.3537 90.0093C87.1829 90.0797 86.9998 90.1157 86.815 90.115V90.114ZM91.397 93.358C90.8938 92.1642 90.1663 91.0779 89.254 90.158L89.227 90.131C89.4858 89.7031 89.624 89.2131 89.627 88.713C89.627 87.9677 89.331 87.253 88.804 86.726C88.277 86.1991 87.5623 85.903 86.817 85.903C86.0717 85.903 85.357 86.1991 84.83 86.726C84.303 87.253 84.007 87.9677 84.007 88.713C84.0101 89.2131 84.1483 89.703 84.407 90.131L84.38 90.158C83.4675 91.0779 82.7397 92.1642 82.236 93.358C81.6388 92.5172 81.2846 91.5282 81.212 90.4995C81.1393 89.4707 81.3512 88.4418 81.8244 87.5255C82.2975 86.6091 83.0137 85.8406 83.8945 85.3041C84.7753 84.7676 85.7867 84.4838 86.818 84.4838C87.8493 84.4838 88.8607 84.7676 89.7415 85.3041C90.6223 85.8406 91.3385 86.6091 91.8116 87.5255C92.2848 88.4418 92.4967 89.4707 92.4241 90.4995C92.3514 91.5282 91.9972 92.5172 91.4 93.358H91.397Z" fill="white" fill-opacity="0.9"/>
</svg>
