<svg width="106" height="120" viewBox="0 0 106 120" fill="none" xmlns="http://www.w3.org/2000/svg">
<path d="M95 119.5H12.4726C9.99129 119.5 7.9726 117.481 7.9726 115V114.983L7.97145 114.966L0.500031 4.98355C0.508875 2.50973 2.52414 0.5 5 0.5H95C97.4813 0.5 99.5 2.51869 99.5 5V115C99.5 117.481 97.4813 119.5 95 119.5Z" fill="white" fill-opacity="0.2"/>
<path d="M5 1C2.80504 1 1.01732 2.77695 1.00013 4.96794L8.4703 114.932L8.4726 114.966V115C8.4726 117.206 10.267 119 12.4726 119H95C97.2056 119 99 117.206 99 115V5C99 2.7944 97.2056 1 95 1H5ZM5 0H95C97.7614 0 100 2.23859 100 5V115C100 117.761 97.7614 120 95 120H12.4726C9.71117 120 7.4726 117.761 7.4726 115L0 5C0 2.23859 2.23859 0 5 0Z" fill="#DDDDDD"/>
<path d="M56.166 120C51.7149 116.155 48.1453 111.395 45.7006 106.046C43.2559 100.696 41.9937 94.8819 42 89C42 78.1261 46.3196 67.6976 54.0086 60.0086C61.6976 52.3196 72.1261 48 83 48C88.8651 47.9916 94.6632 49.2464 100 51.679V115C100 116.326 99.4732 117.598 98.5355 118.536C97.5979 119.473 96.3261 120 95 120H56.166Z" fill="#3FC5F0"/>
<path d="M16.336 14.27V15.572H13.746V24H12.15V15.572H9.546V14.27H16.336ZM23.8183 22.012H19.7443L19.0443 24H17.3783L20.8643 14.256H22.7123L26.1983 24H24.5183L23.8183 22.012ZM23.3703 20.71L21.7883 16.188L20.1923 20.71H23.3703ZM35.7081 24H34.1121L29.3101 16.734V24H27.7141V14.256H29.3101L34.1121 21.508V14.256H35.7081V24ZM45.0139 14.27L41.7939 20.472V24H40.1979V20.472L36.9639 14.27H38.7419L40.9959 19.044L43.2499 14.27H45.0139ZM52.1465 22.012H48.0725L47.3725 24H45.7065L49.1925 14.256H51.0405L54.5265 24H52.8465L52.1465 22.012ZM51.6985 20.71L50.1165 16.188L48.5205 20.71H51.6985Z" fill="#3FC5F0"/>
<path d="M80.181 76.07C79.9895 76.07 79.8059 76.1461 79.6705 76.2815C79.5351 76.4169 79.459 76.6005 79.459 76.792V77.563C79.466 77.7497 79.545 77.9265 79.6796 78.0561C79.8141 78.1857 79.9937 78.2581 80.1805 78.2581C80.3673 78.2581 80.5469 78.1857 80.6815 78.0561C80.816 77.9265 80.8951 77.7497 80.902 77.563V76.792C80.902 76.6007 80.8261 76.4172 80.6909 76.2818C80.5557 76.1465 80.3723 76.0703 80.181 76.07V76.07Z" fill="white" fill-opacity="0.9"/>
<path d="M89.82 76.07C89.6285 76.07 89.4449 76.1461 89.3095 76.2815C89.1741 76.4169 89.098 76.6005 89.098 76.792V77.563C89.105 77.7497 89.184 77.9265 89.3186 78.0561C89.4531 78.1857 89.6327 78.2581 89.8195 78.2581C90.0063 78.2581 90.1859 78.1857 90.3204 78.0561C90.455 77.9265 90.534 77.7497 90.541 77.563V76.792C90.541 76.6007 90.4651 76.4172 90.3299 76.2818C90.1947 76.1465 90.0113 76.0703 89.82 76.07Z" fill="white" fill-opacity="0.9"/>
<path d="M87.828 81.91C87.7615 81.8425 87.6824 81.7889 87.5951 81.752C87.5079 81.7151 87.4142 81.6958 87.3195 81.6951C87.2247 81.6945 87.1308 81.7125 87.0431 81.7482C86.9553 81.7839 86.8754 81.8365 86.808 81.903C86.2768 82.2697 85.6465 82.4661 85.001 82.4661C84.3555 82.4661 83.7253 82.2697 83.194 81.903C83.1274 81.8328 83.0473 81.7767 82.9586 81.7381C82.8698 81.6994 82.7742 81.679 82.6774 81.678C82.5807 81.6771 82.4847 81.6956 82.3952 81.7325C82.3057 81.7694 82.2245 81.8238 82.1565 81.8927C82.0885 81.9616 82.035 82.0435 81.9993 82.1334C81.9636 82.2234 81.9463 82.3196 81.9485 82.4164C81.9507 82.5131 81.9723 82.6085 82.0121 82.6967C82.0518 82.7849 82.109 82.8643 82.18 82.93C82.9834 83.5642 83.977 83.9091 85.0005 83.9091C86.024 83.9091 87.0177 83.5642 87.821 82.93C87.8885 82.8635 87.9422 82.7844 87.979 82.6971C88.0159 82.6099 88.0352 82.5162 88.0359 82.4215C88.0365 82.3267 88.0185 82.2328 87.9828 82.1451C87.9472 82.0573 87.8946 81.9774 87.828 81.91V81.91Z" fill="white" fill-opacity="0.9"/>
<path d="M80.943 73.651H79.401C79.304 73.6474 79.2073 73.6634 79.1166 73.698C79.0259 73.7327 78.9431 73.7852 78.8732 73.8526C78.8033 73.9199 78.7477 74.0007 78.7097 74.09C78.6717 74.1794 78.6521 74.2754 78.6521 74.3725C78.6521 74.4696 78.6717 74.5657 78.7097 74.655C78.7477 74.7443 78.8033 74.8251 78.8732 74.8924C78.9431 74.9598 79.0259 75.0124 79.1166 75.047C79.2073 75.0816 79.304 75.0976 79.401 75.094H80.944C81.041 75.0976 81.1378 75.0816 81.2284 75.047C81.3191 75.0124 81.4019 74.9598 81.4718 74.8924C81.5417 74.8251 81.5973 74.7443 81.6353 74.655C81.6733 74.5657 81.6929 74.4696 81.6929 74.3725C81.6929 74.2754 81.6733 74.1794 81.6353 74.09C81.5973 74.0007 81.5417 73.9199 81.4718 73.8526C81.4019 73.7852 81.3191 73.7327 81.2284 73.698C81.1378 73.6634 81.041 73.6474 80.944 73.651H80.943Z" fill="white" fill-opacity="0.9"/>
<path d="M90.599 73.651H89.053C88.956 73.6474 88.8593 73.6634 88.7686 73.698C88.6779 73.7327 88.5951 73.7852 88.5252 73.8526C88.4553 73.9199 88.3997 74.0007 88.3617 74.09C88.3237 74.1794 88.3042 74.2754 88.3042 74.3725C88.3042 74.4696 88.3237 74.5657 88.3617 74.655C88.3997 74.7443 88.4553 74.8251 88.5252 74.8924C88.5951 74.9598 88.6779 75.0124 88.7686 75.047C88.8593 75.0816 88.956 75.0976 89.053 75.094H90.596C90.7827 75.087 90.9595 75.008 91.0891 74.8735C91.2187 74.7389 91.2912 74.5593 91.2912 74.3725C91.2912 74.1857 91.2187 74.0061 91.0891 73.8716C90.9595 73.737 90.7827 73.658 90.596 73.651H90.599Z" fill="white" fill-opacity="0.9"/>
<path d="M101.072 95.744L95.663 94.081C95.6831 93.7437 95.6034 93.4079 95.434 93.1156C95.2645 92.8232 95.0127 92.5872 94.71 92.437L91.365 90.765V88.38C92.6317 87.5005 93.7031 86.3688 94.5118 85.0559C95.3206 83.7429 95.8494 82.277 96.065 80.75H96.511C97.2075 80.7591 97.883 80.5122 98.4095 80.0561C98.9359 79.6001 99.2767 78.9666 99.367 78.276C99.426 77.7042 99.3044 77.1282 99.0192 76.629C98.734 76.1299 98.2996 75.7326 97.777 75.493V67.167C97.7765 65.6923 97.191 64.278 96.1491 63.2343C95.1071 62.1907 93.6937 61.6029 92.219 61.6H92.092C90.4574 60.5035 88.5215 59.9442 86.554 60C83.3144 59.9004 80.1026 60.6254 77.22 62.107C75.7144 62.8256 74.1558 63.4274 72.558 63.907C72.4566 63.9366 72.3625 63.9872 72.282 64.0556C72.2015 64.1241 72.1363 64.2087 72.0908 64.3041C72.0453 64.3994 72.0205 64.5033 72.0179 64.609C72.0154 64.7146 72.0352 64.8196 72.076 64.917C72.3866 65.5709 72.7994 66.1711 73.299 66.695C72.4975 67.8485 72.1159 69.2421 72.218 70.643V75.527C71.6501 75.788 71.1886 76.2354 70.9102 76.795C70.6319 77.3546 70.5534 77.9926 70.6879 78.6029C70.8224 79.2133 71.1617 79.7592 71.6495 80.15C72.1372 80.5408 72.744 80.7529 73.369 80.751H73.929C74.1442 82.2782 74.6729 83.7444 75.4817 85.0576C76.2905 86.3708 77.362 87.5026 78.629 88.382V90.766L75.286 92.437C74.9833 92.5872 74.7315 92.8232 74.562 93.1156C74.3926 93.4079 74.3129 93.7437 74.333 94.081L68.924 95.744C67.7844 96.0898 66.7867 96.7938 66.0791 97.7517C65.3714 98.7096 64.9916 99.8701 64.996 101.061V110.478C64.996 110.677 65.075 110.868 65.2157 111.008C65.3563 111.149 65.5471 111.228 65.746 111.228C65.9449 111.228 66.1357 111.149 66.2763 111.008C66.417 110.868 66.496 110.677 66.496 110.478V101.061C66.4926 100.191 66.7698 99.3438 67.2865 98.6442C67.8032 97.9446 68.5318 97.4305 69.364 97.178L74.99 95.448L75.983 96.772L74.86 97.9C74.5101 98.2492 74.2791 98.6997 74.2 99.1877C74.1208 99.6756 74.1974 100.176 74.419 100.618L76.567 104.918H74.522V104.064C74.522 103.865 74.443 103.674 74.3023 103.534C74.1617 103.393 73.9709 103.314 73.772 103.314C73.5731 103.314 73.3823 103.393 73.2417 103.534C73.101 103.674 73.022 103.865 73.022 104.064V104.918H69.762C69.5631 104.918 69.3723 104.997 69.2317 105.138C69.091 105.278 69.012 105.469 69.012 105.668V110.48C69.012 110.679 69.091 110.87 69.2317 111.01C69.3723 111.151 69.5631 111.23 69.762 111.23H77.786C77.9849 111.23 78.1757 111.151 78.3163 111.01C78.457 110.87 78.536 110.679 78.536 110.48V108.845L79.521 110.814C79.61 110.992 79.766 111.127 79.9548 111.19C80.1435 111.253 80.3496 111.238 80.5275 111.15C80.7055 111.061 80.8408 110.904 80.9037 110.716C80.9666 110.527 80.952 110.321 80.863 110.143L75.763 99.948C75.6829 99.7878 75.6552 99.6065 75.6839 99.4297C75.7127 99.2529 75.7963 99.0896 75.923 98.963L77.512 97.374C77.6399 97.2464 77.7174 97.0768 77.7303 96.8966C77.7431 96.7164 77.6905 96.5375 77.582 96.393L75.882 94.126C75.8618 94.0988 75.8477 94.0675 75.8408 94.0344C75.834 94.0012 75.8345 93.9669 75.8423 93.9339C75.8501 93.9009 75.8651 93.87 75.8861 93.8434C75.9071 93.8169 75.9337 93.7952 75.964 93.78L78.917 92.3L81.004 99.454C81.0316 99.5486 81.0775 99.6369 81.1392 99.7137C81.2009 99.7906 81.2771 99.8546 81.3635 99.902C81.4499 99.9494 81.5448 99.9793 81.6428 99.99C81.7408 100.001 81.8399 99.9921 81.9345 99.9645C82.0291 99.9369 82.1174 99.891 82.1942 99.8293C82.2711 99.7676 82.3351 99.6914 82.3825 99.605C82.4299 99.5186 82.4598 99.4237 82.4705 99.3257C82.4813 99.2278 82.4726 99.1286 82.445 99.034L82.116 97.906C83.9841 98.5557 86.0169 98.5557 87.885 97.906L85 107.8L83.38 102.247C83.3243 102.056 83.195 101.895 83.0205 101.799C82.846 101.703 82.6406 101.681 82.4495 101.737C82.2584 101.792 82.0973 101.922 82.0015 102.096C81.9058 102.271 81.8833 102.476 81.939 102.667L84.279 110.69C84.3242 110.846 84.4188 110.983 84.5488 111.081C84.6787 111.179 84.8369 111.232 84.9995 111.232C85.1621 111.232 85.3203 111.179 85.4502 111.081C85.5802 110.983 85.6749 110.846 85.72 110.69L91.086 92.3L94.042 93.778C94.0723 93.7932 94.0989 93.8149 94.1199 93.8414C94.141 93.868 94.1559 93.8989 94.1637 93.9319C94.1715 93.9649 94.172 93.9992 94.1652 94.0324C94.1583 94.0655 94.1443 94.0968 94.124 94.124L92.424 96.391C92.3157 96.5356 92.2632 96.7144 92.2761 96.8946C92.2889 97.0747 92.3663 97.2443 92.494 97.372L94.083 98.961C94.2097 99.0876 94.2934 99.2509 94.3221 99.4277C94.3508 99.6045 94.3231 99.7858 94.243 99.946L89.143 110.141C89.054 110.319 89.0394 110.525 89.1023 110.714C89.1652 110.903 89.3005 111.059 89.4785 111.148C89.6565 111.236 89.8625 111.251 90.0512 111.188C90.24 111.125 90.396 110.99 90.485 110.812L95.585 100.617C95.8064 100.175 95.883 99.6746 95.8038 99.1867C95.7247 98.6988 95.4938 98.2483 95.144 97.899L94.016 96.771L95.009 95.447L100.635 97.177C101.467 97.4294 102.196 97.9436 102.713 98.6432C103.229 99.3428 103.506 100.19 103.503 101.06V110.477C103.503 110.576 103.522 110.673 103.56 110.764C103.598 110.855 103.653 110.938 103.723 111.007C103.792 111.077 103.875 111.132 103.966 111.17C104.057 111.208 104.155 111.227 104.253 111.227C104.351 111.227 104.449 111.208 104.54 111.17C104.631 111.132 104.714 111.077 104.783 111.007C104.853 110.938 104.908 110.855 104.946 110.764C104.984 110.673 105.003 110.576 105.003 110.477V101.061C105.007 99.8697 104.627 98.7089 103.919 97.751C103.211 96.7931 102.212 96.0892 101.072 95.744V95.744ZM77.031 109.728H70.511V106.416H73.021V106.468C73.021 106.667 73.1 106.858 73.2407 106.998C73.3813 107.139 73.5721 107.218 73.771 107.218C73.9699 107.218 74.1607 107.139 74.3013 106.998C74.442 106.858 74.521 106.667 74.521 106.468V106.416H77.031V109.728ZM77.839 63.474C80.527 62.0805 83.5279 61.4007 86.554 61.5C89.323 61.5 91.797 62.659 92.309 64.2C92.372 64.3888 92.5074 64.5449 92.6855 64.6339C92.8636 64.7229 93.0697 64.7375 93.2585 64.6745C93.4473 64.6115 93.6034 64.4761 93.6924 64.298C93.7814 64.12 93.796 63.9138 93.733 63.725C93.6894 63.5952 93.6383 63.4679 93.58 63.344C94.3695 63.6261 95.0525 64.1451 95.5358 64.8301C96.0191 65.5151 96.279 66.3327 96.28 67.171V75.243H95.426C95.1996 75.2427 94.9825 75.1527 94.8224 74.9926C94.6623 74.8325 94.5723 74.6154 94.572 74.389V73.589C94.4644 71.2915 93.5321 69.1098 91.946 67.444C91.8488 67.3469 91.7269 67.2783 91.5934 67.2456C91.4599 67.213 91.32 67.2176 91.189 67.259C87.023 68.575 81.15 69.683 76.825 67.495C75.6705 66.9298 74.6677 66.097 73.9 65.066C75.2425 64.6114 76.5577 64.0799 77.839 63.474V63.474ZM89.864 91.122L88.431 96.036C87.3755 96.5999 86.1972 96.8949 85.0005 96.8949C83.8038 96.8949 82.6255 96.5999 81.57 96.036L80.136 91.122V89.26C81.6524 89.9942 83.3153 90.3756 85 90.3756C86.6848 90.3756 88.3477 89.9942 89.864 89.26V91.122ZM85 88.875C82.4348 88.8721 79.9756 87.8519 78.1616 86.0381C76.3477 84.2244 75.3272 81.7652 75.324 79.2C75.324 79.0011 75.245 78.8103 75.1043 78.6697C74.9637 78.529 74.7729 78.45 74.574 78.45C74.3751 78.45 74.1843 78.529 74.0437 78.6697C73.903 78.8103 73.824 79.0011 73.824 79.2V79.252H73.371C73.1951 79.252 73.0211 79.215 72.8604 79.1434C72.6997 79.0718 72.5558 78.9672 72.4381 78.8364C72.3204 78.7057 72.2316 78.5516 72.1773 78.3842C72.123 78.2169 72.1045 78.04 72.123 77.865C72.1732 77.5432 72.3397 77.251 72.5908 77.0436C72.842 76.8363 73.1605 76.7283 73.486 76.74H74.574C75.1984 76.7395 75.7971 76.4912 76.2387 76.0497C76.6802 75.6081 76.9285 75.0094 76.929 74.385V71.553C76.929 71.3541 76.85 71.1633 76.7093 71.0227C76.5687 70.882 76.3779 70.803 76.179 70.803C75.9801 70.803 75.7893 70.882 75.6487 71.0227C75.508 71.1633 75.429 71.3541 75.429 71.553V74.385C75.4287 74.6114 75.3387 74.8285 75.1786 74.9886C75.0185 75.1487 74.8014 75.2387 74.575 75.239H73.721V70.639C73.6491 69.6191 73.8879 68.6014 74.406 67.72C74.914 68.1195 75.4584 68.4704 76.032 68.768C77.9035 69.6969 79.959 70.1954 82.048 70.227C85.147 70.2616 88.2308 69.7887 91.177 68.827C92.3199 70.1572 92.9883 71.8295 93.077 73.581V74.381C93.0775 75.0054 93.3258 75.6041 93.7674 76.0457C94.2089 76.4872 94.8076 76.7355 95.432 76.736H96.632C96.808 76.736 96.9819 76.773 97.1426 76.8446C97.3034 76.9162 97.4472 77.0208 97.5649 77.1516C97.6826 77.2824 97.7715 77.4364 97.8257 77.6038C97.88 77.7711 97.8985 77.948 97.88 78.123C97.8302 78.4454 97.6638 78.7382 97.4124 78.946C97.1609 79.1537 96.842 79.2619 96.516 79.25H96.177V79.206C96.177 79.0071 96.098 78.8163 95.9573 78.6757C95.8167 78.535 95.6259 78.456 95.427 78.456V78.456C95.2281 78.456 95.0373 78.535 94.8967 78.6757C94.756 78.8163 94.677 79.0071 94.677 79.206C94.6715 81.77 93.6498 84.2272 91.836 86.0394C90.0222 87.8515 87.564 88.8708 85 88.874V88.875Z" fill="white" fill-opacity="0.9"/>
<path d="M100.422 105.544H99.216V104.337C99.2091 104.15 99.13 103.974 98.9955 103.844C98.8609 103.714 98.6814 103.642 98.4945 103.642C98.3077 103.642 98.1281 103.714 97.9936 103.844C97.859 103.974 97.78 104.15 97.773 104.337V105.544H96.566C96.469 105.54 96.3723 105.556 96.2816 105.591C96.1909 105.626 96.1081 105.678 96.0382 105.746C95.9683 105.813 95.9127 105.894 95.8747 105.983C95.8367 106.072 95.8172 106.168 95.8172 106.266C95.8172 106.363 95.8367 106.459 95.8747 106.548C95.9127 106.637 95.9683 106.718 96.0382 106.785C96.1081 106.853 96.1909 106.905 96.2816 106.94C96.3723 106.975 96.469 106.991 96.566 106.987H97.773V108.194C97.78 108.381 97.859 108.557 97.9936 108.687C98.1281 108.817 98.3077 108.889 98.4945 108.889C98.6814 108.889 98.8609 108.817 98.9955 108.687C99.13 108.557 99.2091 108.381 99.216 108.194V106.987H100.423C100.52 106.991 100.617 106.975 100.707 106.94C100.798 106.905 100.881 106.853 100.951 106.785C101.021 106.718 101.076 106.637 101.114 106.548C101.152 106.459 101.172 106.363 101.172 106.266C101.172 106.168 101.152 106.072 101.114 105.983C101.076 105.894 101.021 105.813 100.951 105.746C100.881 105.678 100.798 105.626 100.707 105.591C100.617 105.556 100.52 105.54 100.423 105.544H100.422Z" fill="white" fill-opacity="0.9"/>
<path d="M13.228 29.27C14.264 29.27 15.1693 29.4707 15.944 29.872C16.728 30.264 17.33 30.8333 17.75 31.58C18.1793 32.3173 18.394 33.1807 18.394 34.17C18.394 35.1593 18.1793 36.018 17.75 36.746C17.33 37.474 16.728 38.034 15.944 38.426C15.1693 38.8087 14.264 39 13.228 39H10.05V29.27H13.228ZM13.228 37.698C14.3667 37.698 15.2393 37.39 15.846 36.774C16.4527 36.158 16.756 35.29 16.756 34.17C16.756 33.0407 16.4527 32.1587 15.846 31.524C15.2393 30.8893 14.3667 30.572 13.228 30.572H11.646V37.698H13.228ZM24.4138 39.098C23.5084 39.098 22.6731 38.888 21.9078 38.468C21.1518 38.0387 20.5498 37.446 20.1018 36.69C19.6631 35.9247 19.4438 35.066 19.4438 34.114C19.4438 33.162 19.6631 32.308 20.1018 31.552C20.5498 30.796 21.1518 30.208 21.9078 29.788C22.6731 29.3587 23.5084 29.144 24.4138 29.144C25.3284 29.144 26.1638 29.3587 26.9198 29.788C27.6851 30.208 28.2871 30.796 28.7258 31.552C29.1644 32.308 29.3838 33.162 29.3838 34.114C29.3838 35.066 29.1644 35.9247 28.7258 36.69C28.2871 37.446 27.6851 38.0387 26.9198 38.468C26.1638 38.888 25.3284 39.098 24.4138 39.098ZM24.4138 37.712C25.0578 37.712 25.6318 37.5673 26.1358 37.278C26.6398 36.9793 27.0318 36.5593 27.3118 36.018C27.6011 35.4673 27.7458 34.8327 27.7458 34.114C27.7458 33.3953 27.6011 32.7653 27.3118 32.224C27.0318 31.6827 26.6398 31.2673 26.1358 30.978C25.6318 30.6887 25.0578 30.544 24.4138 30.544C23.7698 30.544 23.1958 30.6887 22.6918 30.978C22.1878 31.2673 21.7911 31.6827 21.5018 32.224C21.2218 32.7653 21.0818 33.3953 21.0818 34.114C21.0818 34.8327 21.2218 35.4673 21.5018 36.018C21.7911 36.5593 22.1878 36.9793 22.6918 37.278C23.1958 37.5673 23.7698 37.712 24.4138 37.712ZM36.3163 39L32.5503 34.646V39H30.9543V29.27H32.5503V33.708L36.3303 29.27H38.3323L34.1043 34.142L38.4023 39H36.3163ZM46.0997 29.27V30.572H43.5097V39H41.9137V30.572H39.3097V29.27H46.0997ZM49.312 30.558V33.414H52.672V34.716H49.312V37.698H53.092V39H47.716V29.256H53.092V30.558H49.312ZM60.1118 39L57.8718 35.108H56.6538V39H55.0578V29.27H58.4178C59.1645 29.27 59.7945 29.4007 60.3078 29.662C60.8305 29.9233 61.2178 30.2733 61.4698 30.712C61.7311 31.1507 61.8618 31.6407 61.8618 32.182C61.8618 32.8167 61.6751 33.3953 61.3018 33.918C60.9378 34.4313 60.3731 34.7813 59.6078 34.968L62.0158 39H60.1118ZM56.6538 33.834H58.4178C59.0151 33.834 59.4631 33.6847 59.7618 33.386C60.0698 33.0873 60.2238 32.686 60.2238 32.182C60.2238 31.678 60.0745 31.286 59.7758 31.006C59.4771 30.7167 59.0245 30.572 58.4178 30.572H56.6538V33.834Z" fill="#3FC5F0"/>
</svg>
